Fraunces-BoldOpMin.ufo
<glyph name="parenleft" format="2">
  <advance width="415"/>
  <unicode hex="0028"/>
  <outline>
    <contour>
      <point x="71" y="290" type="curve" smooth="yes"/>
      <point x="71.0" y="54.0"/>
      <point x="196.0" y="-114.0"/>
      <point x="333" y="-162" type="curve" smooth="yes"/>
      <point x="351" y="-168"/>
      <point x="369" y="-170"/>
      <point x="379" y="-170" type="curve" smooth="yes"/>
      <point x="394" y="-170"/>
      <point x="404" y="-158"/>
      <point x="404" y="-142" type="curve" smooth="yes"/>
      <point x="404" y="-132"/>
      <point x="399" y="-123"/>
      <point x="382" y="-115" type="curve" smooth="yes"/>
      <point x="282.0" y="-69.0"/>
      <point x="219.0" y="80.0"/>
      <point x="219" y="290" type="curve" smooth="yes"/>
      <point x="219.0" y="499.0"/>
      <point x="283.0" y="649.0"/>
      <point x="382" y="695" type="curve" smooth="yes"/>
      <point x="399" y="703"/>
      <point x="404" y="713"/>
      <point x="404" y="725" type="curve" smooth="yes"/>
      <point x="404" y="738"/>
      <point x="394" y="751"/>
      <point x="380" y="751" type="curve" smooth="yes"/>
      <point x="370" y="751"/>
      <point x="358" y="746"/>
      <point x="336" y="738" type="curve" smooth="yes"/>
      <point x="187.0" y="680.0"/>
      <point x="71.0" y="502.0"/>
    </contour>
  </outline>
</glyph>
<glyph name="zero" format="2">
  <advance width="623"/>
  <unicode hex="0030"/>
  <outline>
    <contour>
      <point x="308" y="665" type="curve" smooth="yes"/>
      <point x="136.0" y="665.0"/>
      <point x="25.0" y="537.0"/>
      <point x="25" y="336" type="curve" smooth="yes"/>
      <point x="25.0" y="110.0"/>
      <point x="128.0" y="-15.0"/>
      <point x="308" y="-15" type="curve" smooth="yes"/>
      <point x="475.0" y="-15.0"/>
      <point x="598.0" y="107.0"/>
      <point x="598" y="336" type="curve" smooth="yes"/>
      <point x="598.0" y="540.0"/>
      <point x="482.0" y="665.0"/>
    </contour>
    <contour>
      <point x="421" y="295" type="curve" smooth="yes"/>
      <point x="421.0" y="120.0"/>
      <point x="379.0" y="56.0"/>
      <point x="323" y="56" type="curve" smooth="yes"/>
      <point x="243.0" y="56.0"/>
      <point x="200.0" y="148.0"/>
      <point x="200" y="370" type="curve" smooth="yes"/>
      <point x="200.0" y="514.0"/>
      <point x="233.0" y="594.0"/>
      <point x="296" y="594" type="curve" smooth="yes"/>
      <point x="375.0" y="594.0"/>
      <point x="421.0" y="501.0"/>
    </contour>
  </outline>
</glyph>
<glyph name="four" format="2">
  <advance width="551"/>
  <unicode hex="0034"/>
  <outline>
    <contour>
      <point x="296" y="323" type="curve" smooth="yes"/>
      <point x="297" y="131" type="line" smooth="yes"/>
      <point x="297" y="102"/>
      <point x="284" y="90"/>
      <point x="258" y="82" type="curve" smooth="yes"/>
      <point x="231" y="74" type="line" smooth="yes"/>
      <point x="200" y="65"/>
      <point x="181" y="60"/>
      <point x="181" y="35" type="curve" smooth="yes"/>
      <point x="181" y="10"/>
      <point x="194" y="0"/>
      <point x="224" y="0" type="curve" smooth="yes"/>
      <point x="494" y="0" type="line" smooth="yes"/>
      <point x="523.0" y="0.0"/>
      <point x="537" y="10"/>
      <point x="537" y="35" type="curve" smooth="yes"/>
      <point x="537" y="60"/>
      <point x="521" y="73"/>
      <point x="496" y="77" type="curve" smooth="yes"/>
      <point x="476" y="80" type="line" smooth="yes"/>
      <point x="450" y="84"/>
      <point x="437" y="99"/>
      <point x="437" y="128" type="curve" smooth="yes"/>
      <point x="436" y="416" type="line" smooth="yes"/>
      <point x="436" y="442"/>
      <point x="424" y="453"/>
      <point x="407" y="453" type="curve" smooth="yes"/>
      <point x="393.0" y="453.0"/>
      <point x="379" y="450"/>
      <point x="361" y="429" type="curve" smooth="yes"/>
      <point x="320" y="381" type="line" smooth="yes"/>
      <point x="305" y="364"/>
      <point x="296" y="348"/>
    </contour>
    <contour>
      <point x="162" y="394" type="curve" smooth="yes"/>
      <point x="53" y="277" type="line" smooth="yes"/>
      <point x="28" y="250"/>
      <point x="12" y="225"/>
      <point x="12" y="205" type="curve" smooth="yes"/>
      <point x="12" y="174"/>
      <point x="31" y="156"/>
      <point x="65" y="156" type="curve" smooth="yes"/>
      <point x="490" y="156" type="line" smooth="yes"/>
      <point x="524.0" y="156.0"/>
      <point x="539.0" y="169.0"/>
      <point x="539" y="200" type="curve" smooth="yes"/>
      <point x="539" y="223"/>
      <point x="517.0" y="234.0"/>
      <point x="490" y="234" type="curve" smooth="yes"/>
      <point x="85" y="234" type="line"/>
      <point x="87" y="207" type="line"/>
      <point x="285" y="422" type="line" smooth="yes"/>
      <point x="352" y="495"/>
      <point x="379" y="534"/>
      <point x="379" y="573" type="curve" smooth="yes"/>
      <point x="379.0" y="626.7528089887641"/>
      <point x="339.0" y="665.0"/>
      <point x="286" y="665" type="curve" smooth="yes"/>
      <point x="221.0" y="665.0"/>
      <point x="182.0" y="618.5326086956521"/>
      <point x="182" y="570" type="curve" smooth="yes"/>
      <point x="182" y="532"/>
      <point x="211" y="520"/>
      <point x="211" y="485" type="curve" smooth="yes"/>
      <point x="211" y="459"/>
      <point x="194" y="428"/>
    </contour>
  </outline>
</glyph>
<glyph name="less" format="2">
  <advance width="528"/>
  <unicode hex="003C"/>
  <outline>
    <contour>
      <point x="471" y="96" type="curve" smooth="yes"/>
      <point x="480" y="134"/>
      <point x="460.0" y="170.0"/>
      <point x="398" y="200" type="curve" smooth="yes"/>
      <point x="321" y="237"/>
      <point x="205.9772158880353" y="275.3272198187379"/>
      <point x="83" y="311" type="curve"/>
      <point x="83" y="295" type="line"/>
      <point x="206.0574058424986" y="329.756671879179"/>
      <point x="322" y="365"/>
      <point x="401" y="407" type="curve" smooth="yes"/>
      <point x="457.0" y="436"/>
      <point x="482.0" y="463.0"/>
      <point x="471" y="500" type="curve" smooth="yes"/>
      <point x="459.0" y="542"/>
      <point x="413" y="548"/>
      <point x="370" y="512" type="curve" smooth="yes"/>
      <point x="324" y="473"/>
      <point x="186.69885118348498" y="404.7656573990422"/>
      <point x="75" y="363" type="curve" smooth="yes"/>
      <point x="34.32996084598403" y="347.4496909116998"/>
      <point x="20.0" y="325.5"/>
      <point x="20" y="303" type="curve" smooth="yes"/>
      <point x="20.0" y="280.5"/>
      <point x="34.76440565290195" y="258.8503856518871"/>
      <point x="75" y="243" type="curve" smooth="yes"/>
      <point x="186.78060827554245" y="201.5640848633765"/>
      <point x="320" y="127"/>
      <point x="370" y="94" type="curve" smooth="yes"/>
      <point x="424.0" y="58.0"/>
      <point x="464" y="66"/>
    </contour>
  </outline>
</glyph>
<glyph name="at" format="2">
  <advance width="778"/>
  <unicode hex="0040"/>
  <outline>
    <contour>
      <point x="478" y="231" type="curve"/>
      <point x="483" y="270" type="line"/>
      <point x="458.0" y="281.0"/>
      <point x="439.0" y="288.0"/>
      <point x="402" y="288" type="curve" smooth="yes"/>
      <point x="294.0" y="288.0"/>
      <point x="235.0" y="246.83168316831683"/>
      <point x="235" y="189" type="curve" smooth="yes"/>
      <point x="235.0" y="129.81632653061223"/>
      <point x="285.6046511627907" y="89.0"/>
      <point x="363" y="89" type="curve" smooth="yes"/>
      <point x="416.40458015267177" y="89.0"/>
      <point x="468.2295008822015" y="109.96278964911735"/>
      <point x="495" y="146" type="curve"/>
      <point x="473" y="184" type="line"/>
      <point x="461.3675311381796" y="164.88951544129506"/>
      <point x="435.8783783783784" y="157.0"/>
      <point x="406" y="157" type="curve" smooth="yes"/>
      <point x="371.88235294117646" y="157.0"/>
      <point x="348.0" y="175.8181818181818"/>
      <point x="348" y="203" type="curve" smooth="yes"/>
      <point x="348.0" y="226.8095238095238"/>
      <point x="369.0" y="243.0"/>
      <point x="401" y="243" type="curve" smooth="yes"/>
      <point x="434.0" y="243.0"/>
      <point x="454.0" y="239.0"/>
    </contour>
    <contour>
      <point x="250" y="361" type="curve" smooth="yes"/>
      <point x="250.0" y="327.5964912280702"/>
      <point x="272.41509433962267" y="305.0"/>
      <point x="304" y="305" type="curve" smooth="yes"/>
      <point x="340.4032258064516" y="305.0"/>
      <point x="365" y="330.3090909090909"/>
      <point x="365" y="363" type="curve" smooth="yes"/>
      <point x="365" y="386" type="line" smooth="yes"/>
      <point x="365" y="406.0"/>
      <point x="377.0" y="415.0"/>
      <point x="397" y="415" type="curve" smooth="yes"/>
      <point x="429.6666666666667" y="415.0"/>
      <point x="453" y="393.0"/>
      <point x="453" y="332" type="curve" smooth="yes"/>
      <point x="453" y="189" type="line" smooth="yes"/>
      <point x="453" y="117"/>
      <point x="504.0" y="89.0"/>
      <point x="560" y="89" type="curve" smooth="yes"/>
      <point x="660.0" y="89.0"/>
      <point x="738.0" y="167.0"/>
      <point x="738" y="301" type="curve" smooth="yes"/>
      <point x="738" y="487"/>
      <point x="600" y="614"/>
      <point x="411" y="614" type="curve" smooth="yes"/>
      <point x="197" y="614"/>
      <point x="40" y="468"/>
      <point x="40" y="267" type="curve" smooth="yes"/>
      <point x="40" y="56"/>
      <point x="187" y="-83"/>
      <point x="408" y="-83" type="curve" smooth="yes"/>
      <point x="537" y="-83"/>
      <point x="650" y="-40"/>
      <point x="713" y="27" type="curve" smooth="yes"/>
      <point x="728" y="43"/>
      <point x="732" y="53"/>
      <point x="732" y="64" type="curve" smooth="yes"/>
      <point x="732.0" y="80.0"/>
      <point x="722.0" y="93.0"/>
      <point x="704" y="93" type="curve" smooth="yes"/>
      <point x="690.0" y="93.0"/>
      <point x="680.0" y="88.0"/>
      <point x="658" y="66" type="curve" smooth="yes"/>
      <point x="617.0" y="25.0"/>
      <point x="523.0" y="-11.0"/>
      <point x="409" y="-11" type="curve" smooth="yes"/>
      <point x="237.0" y="-11.0"/>
      <point x="114.0" y="105"/>
      <point x="114" y="267" type="curve" smooth="yes"/>
      <point x="114.0" y="428.0"/>
      <point x="238.0" y="547.0"/>
      <point x="405" y="547" type="curve" smooth="yes"/>
      <point x="555" y="547"/>
      <point x="666" y="446"/>
      <point x="666" y="300" type="curve" smooth="yes"/>
      <point x="666.0" y="200.0"/>
      <point x="633.0" y="160.0"/>
      <point x="590" y="160" type="curve" smooth="yes"/>
      <point x="562.0" y="160.0"/>
      <point x="549" y="177"/>
      <point x="549" y="208" type="curve" smooth="yes"/>
      <point x="549" y="349" type="line" smooth="yes"/>
      <point x="549" y="424.0"/>
      <point x="493.9043478260869" y="459.0"/>
      <point x="417" y="459" type="curve" smooth="yes"/>
      <point x="308.82954545454544" y="459.0"/>
      <point x="250.0" y="407.9148936170213"/>
    </contour>
  </outline>
</glyph>
<glyph name="C" format="2">
  <advance width="672"/>
  <unicode hex="0043"/>
  <anchor x="355" y="775" name="center"/>
  <outline>
    <contour>
      <point x="658.0" y="187" type="curve" smooth="yes"/>
      <point x="658.0" y="204.0"/>
      <point x="649.0" y="218.0"/>
      <point x="638" y="218" type="curve" smooth="yes"/>
      <point x="626" y="218.0"/>
      <point x="617" y="215"/>
      <point x="600" y="191" type="curve" smooth="yes"/>
      <point x="566.0" y="143.0"/>
      <point x="492.0" y="111.0"/>
      <point x="424" y="111" type="curve" smooth="yes"/>
      <point x="284.0" y="111.0"/>
      <point x="187.0" y="221.0"/>
      <point x="187" y="378" type="curve" smooth="yes"/>
      <point x="187.0" y="536.0"/>
      <point x="265" y="629"/>
      <point x="373" y="629.0" type="curve" smooth="yes"/>
      <point x="439.0" y="629.0"/>
      <point x="496.0" y="597.0"/>
      <point x="555" y="510" type="curve" smooth="yes"/>
      <point x="577.0739147591477" y="477.99282359923586"/>
      <point x="596.0" y="468.0"/>
      <point x="615" y="468" type="curve" smooth="yes"/>
      <point x="637.0" y="468.0"/>
      <point x="651.0" y="483.0"/>
      <point x="651" y="501" type="curve" smooth="yes"/>
      <point x="651" y="513"/>
      <point x="649.6985007165641" y="520.817933079914"/>
      <point x="641" y="550" type="curve" smooth="yes"/>
      <point x="610" y="654" type="line" smooth="yes"/>
      <point x="596" y="700"/>
      <point x="584.0" y="716.0"/>
      <point x="562" y="716" type="curve" smooth="yes"/>
      <point x="534" y="716.0"/>
      <point x="531.0" y="690.0"/>
      <point x="501" y="690" type="curve" smooth="yes"/>
      <point x="481.0" y="690.0"/>
      <point x="446.0" y="713.0"/>
      <point x="385" y="713" type="curve" smooth="yes"/>
      <point x="180.0" y="713.0"/>
      <point x="30.0" y="558.0"/>
      <point x="30" y="338" type="curve" smooth="yes"/>
      <point x="30.0" y="130.0"/>
      <point x="159.0" y="-15.0"/>
      <point x="360" y="-15" type="curve" smooth="yes"/>
      <point x="530.0" y="-15.0"/>
      <point x="658.0" y="92.0"/>
    </contour>
  </outline>
</glyph>
<glyph name="G" format="2">
  <advance width="767"/>
  <unicode hex="0047"/>
  <outline>
    <contour>
      <point x="675" y="35" type="curve" smooth="yes"/>
      <point x="675" y="199" type="line" smooth="yes"/>
      <point x="675" y="230"/>
      <point x="688" y="247"/>
      <point x="706" y="258" type="curve" smooth="yes"/>
      <point x="716" y="264" type="line" smooth="yes"/>
      <point x="738" y="277"/>
      <point x="744" y="287"/>
      <point x="744" y="307" type="curve" smooth="yes"/>
      <point x="744" y="329"/>
      <point x="728" y="342"/>
      <point x="703" y="342" type="curve" smooth="yes"/>
      <point x="449" y="342" type="line" smooth="yes"/>
      <point x="423" y="342"/>
      <point x="408" y="328"/>
      <point x="408" y="305" type="curve" smooth="yes"/>
      <point x="408" y="280"/>
      <point x="424" y="268"/>
      <point x="453" y="262" type="curve" smooth="yes"/>
      <point x="478" y="257" type="line" smooth="yes"/>
      <point x="502" y="252"/>
      <point x="516" y="231"/>
      <point x="516" y="201" type="curve" smooth="yes"/>
      <point x="516" y="146" type="line" smooth="yes"/>
      <point x="516.0" y="106.0"/>
      <point x="492" y="85"/>
      <point x="432" y="85" type="curve" smooth="yes"/>
      <point x="289.0" y="85.0"/>
      <point x="193.0" y="194.0"/>
      <point x="193" y="365" type="curve" smooth="yes"/>
      <point x="193.0" y="530.0"/>
      <point x="273.0" y="640.0"/>
      <point x="404" y="640" type="curve" smooth="yes"/>
      <point x="468.0" y="640.0"/>
      <point x="532.0" y="612.0"/>
      <point x="599" y="516" type="curve" smooth="yes"/>
      <point x="627" y="476"/>
      <point x="649.0" y="461.0"/>
      <point x="671" y="461" type="curve" smooth="yes"/>
      <point x="694.0" y="461.0"/>
      <point x="710.0" y="477.0"/>
      <point x="710" y="502" type="curve" smooth="yes"/>
      <point x="710.0" y="513.0"/>
      <point x="706.0" y="523.0"/>
      <point x="703" y="538" type="curve" smooth="yes"/>
      <point x="675" y="673" type="line" smooth="yes"/>
      <point x="668" y="705"/>
      <point x="653" y="714"/>
      <point x="633" y="714" type="curve" smooth="yes"/>
      <point x="605" y="714"/>
      <point x="588" y="682"/>
      <point x="556" y="682" type="curve" smooth="yes"/>
      <point x="536" y="682.0"/>
      <point x="499" y="714"/>
      <point x="417" y="714" type="curve" smooth="yes"/>
      <point x="182.0" y="714.0"/>
      <point x="30.0" y="552.0"/>
      <point x="30" y="330" type="curve" smooth="yes"/>
      <point x="30.0" y="122.0"/>
      <point x="162.0" y="-15.0"/>
      <point x="351" y="-15.0" type="curve" smooth="yes"/>
      <point x="441" y="-15"/>
      <point x="485" y="31.0"/>
      <point x="519" y="31" type="curve" smooth="yes"/>
      <point x="553" y="31.0"/>
      <point x="577" y="-15.0"/>
      <point x="615" y="-15.0" type="curve" smooth="yes"/>
      <point x="659" y="-15"/>
      <point x="675" y="5"/>
    </contour>
  </outline>
</glyph>
<glyph name="S" format="2">
  <advance width="593"/>
  <unicode hex="0053"/>
  <outline>
    <contour>
      <point x="298.0" y="-15.0" type="curve" smooth="yes"/>
      <point x="460.0" y="-15.0"/>
      <point x="557" y="77"/>
      <point x="557.0" y="194.0" type="curve" smooth="yes"/>
      <point x="557.0" y="289"/>
      <point x="501" y="366"/>
      <point x="332" y="419" type="curve" smooth="yes"/>
      <point x="234.0" y="449.0"/>
      <point x="193" y="489.0"/>
      <point x="193.0" y="549.0" type="curve" smooth="yes"/>
      <point x="193" y="601"/>
      <point x="233.0" y="640.0"/>
      <point x="286.0" y="640.0" type="curve" smooth="yes"/>
      <point x="346.0" y="640.0"/>
      <point x="404.0" y="607.0"/>
      <point x="463" y="513" type="curve" smooth="yes"/>
      <point x="483.3646956272358" y="480.41648699642275"/>
      <point x="504.4761904761905" y="466.0"/>
      <point x="530.0" y="466.0" type="curve" smooth="yes"/>
      <point x="554.0" y="466.0"/>
      <point x="566.0" y="481.1578947368421"/>
      <point x="566.0" y="502.0" type="curve" smooth="yes"/>
      <point x="566.0" y="523.7924528301887"/>
      <point x="561.3298698173583" y="540.0020367986953"/>
      <point x="556.0" y="557.0" type="curve" smooth="yes"/>
      <point x="519" y="675" type="line" smooth="yes"/>
      <point x="511" y="700"/>
      <point x="491.0" y="723.0"/>
      <point x="466.0" y="723.0" type="curve" smooth="yes"/>
      <point x="435.0" y="723.0"/>
      <point x="430.0" y="698.0"/>
      <point x="406.0" y="698.0" type="curve" smooth="yes"/>
      <point x="383.9166666666667" y="698.0"/>
      <point x="349.6875" y="714.0"/>
      <point x="300" y="714.0" type="curve" smooth="yes"/>
      <point x="136.1818181818182" y="714.0"/>
      <point x="35.0" y="619.5668202764977"/>
      <point x="35.0" y="496.0" type="curve" smooth="yes"/>
      <point x="35" y="390.0"/>
      <point x="93.0" y="312.0"/>
      <point x="273" y="262" type="curve" smooth="yes"/>
      <point x="364" y="237"/>
      <point x="403.0" y="209.0"/>
      <point x="403.0" y="151.0" type="curve" smooth="yes"/>
      <point x="403" y="96"/>
      <point x="365.0" y="62.0"/>
      <point x="305.0" y="62.0" type="curve" smooth="yes"/>
      <point x="244.0" y="62.0"/>
      <point x="207.0" y="83.0"/>
      <point x="158.0" y="161.0" type="curve" smooth="yes"/>
      <point x="123.0" y="216.0"/>
      <point x="111.0" y="229.0"/>
      <point x="88.0" y="229.0" type="curve" smooth="yes"/>
      <point x="60.0" y="229.0"/>
      <point x="41.0" y="206.0"/>
      <point x="48.0" y="163.0" type="curve" smooth="yes"/>
      <point x="71" y="28" type="line" smooth="yes"/>
      <point x="77" y="-8"/>
      <point x="95.0" y="-25.0"/>
      <point x="124.0" y="-25.0" type="curve" smooth="yes"/>
      <point x="151.0" y="-25.0"/>
      <point x="160.0" y="-1.0"/>
      <point x="180.0" y="-1.0" type="curve" smooth="yes"/>
      <point x="203" y="-1"/>
      <point x="238.0" y="-15.0"/>
    </contour>
  </outline>
</glyph>
<glyph name="T" format="2">
  <advance width="646"/>
  <unicode hex="0054"/>
  <outline>
    <contour>
      <point x="154" y="700" type="line" smooth="yes"/>
      <point x="122.0" y="700.0"/>
      <point x="107.0" y="722.0"/>
      <point x="86" y="722" type="curve" smooth="yes"/>
      <point x="57.52380952380952" y="722.0"/>
      <point x="39.849654190567136" y="706.348324154287"/>
      <point x="34" y="678" type="curve" smooth="yes"/>
      <point x="8" y="552" type="line" smooth="yes"/>
      <point x="1" y="516"/>
      <point x="14" y="501"/>
      <point x="35" y="501" type="curve" smooth="yes"/>
      <point x="54" y="501"/>
      <point x="69" y="509"/>
      <point x="93" y="548" type="curve" smooth="yes"/>
      <point x="127" y="602"/>
      <point x="158" y="628"/>
      <point x="192" y="628" type="curve" smooth="yes"/>
      <point x="240" y="628" type="line"/>
      <point x="240" y="134" type="line" smooth="yes"/>
      <point x="240" y="104"/>
      <point x="228" y="89"/>
      <point x="203" y="82" type="curve" smooth="yes"/>
      <point x="184" y="77" type="line" smooth="yes"/>
      <point x="156" y="70"/>
      <point x="141" y="58"/>
      <point x="141" y="36" type="curve" smooth="yes"/>
      <point x="141" y="12"/>
      <point x="158" y="0"/>
      <point x="182" y="0" type="curve" smooth="yes"/>
      <point x="463" y="0" type="line" smooth="yes"/>
      <point x="488" y="0"/>
      <point x="504" y="12"/>
      <point x="504" y="36" type="curve" smooth="yes"/>
      <point x="504" y="58"/>
      <point x="490" y="69"/>
      <point x="461" y="77" type="curve" smooth="yes"/>
      <point x="442" y="82" type="line" smooth="yes"/>
      <point x="417" y="89"/>
      <point x="405" y="104"/>
      <point x="405" y="134" type="curve" smooth="yes"/>
      <point x="405" y="628" type="line"/>
      <point x="454" y="628" type="line" smooth="yes"/>
      <point x="488" y="628"/>
      <point x="520" y="597"/>
      <point x="551" y="546" type="curve" smooth="yes"/>
      <point x="575" y="507"/>
      <point x="592" y="499"/>
      <point x="612" y="499" type="curve" smooth="yes"/>
      <point x="635" y="499"/>
      <point x="646" y="513"/>
      <point x="638" y="550" type="curve" smooth="yes"/>
      <point x="611" y="679" type="line" smooth="yes"/>
      <point x="604.9471137325013" y="707.9193455002717"/>
      <point x="587.4423076923077" y="724.0"/>
      <point x="562" y="724" type="curve" smooth="yes"/>
      <point x="536.9090909090909" y="724.0"/>
      <point x="520.1818181818181" y="700.0"/>
      <point x="493" y="700" type="curve"/>
    </contour>
  </outline>
</glyph>
<glyph name="Y" format="2">
  <advance width="667"/>
  <unicode hex="0059"/>
  <anchor x="329" y="710" name="center"/>
  <outline>
    <contour>
      <point x="249" y="246" type="line"/>
      <point x="249" y="124" type="line" smooth="yes"/>
      <point x="249" y="98"/>
      <point x="237" y="86"/>
      <point x="213" y="80" type="curve" smooth="yes"/>
      <point x="188" y="74" type="line" smooth="yes"/>
      <point x="170" y="70"/>
      <point x="160" y="59"/>
      <point x="160" y="35" type="curve" smooth="yes"/>
      <point x="160.0" y="12.0"/>
      <point x="175.0" y="0"/>
      <point x="200" y="0" type="curve" smooth="yes"/>
      <point x="463" y="0" type="line" smooth="yes"/>
      <point x="491" y="0"/>
      <point x="503.0" y="11.0"/>
      <point x="503" y="35" type="curve" smooth="yes"/>
      <point x="503" y="59"/>
      <point x="493" y="70"/>
      <point x="475" y="74" type="curve" smooth="yes"/>
      <point x="450" y="80" type="line" smooth="yes"/>
      <point x="426" y="86"/>
      <point x="414" y="98"/>
      <point x="414" y="124" type="curve" smooth="yes"/>
      <point x="414" y="246" type="line"/>
    </contour>
    <contour>
      <point x="400" y="205" type="line"/>
      <point x="567" y="536" type="line" smooth="yes"/>
      <point x="592.1316443809169" y="585.8118220963083"/>
      <point x="608.3397322897234" y="600.1516318240425"/>
      <point x="634" y="609" type="curve" smooth="yes"/>
      <point x="655" y="616"/>
      <point x="662" y="638"/>
      <point x="662" y="658" type="curve" smooth="yes"/>
      <point x="662.0" y="686.0"/>
      <point x="649" y="700"/>
      <point x="619" y="700" type="curve" smooth="yes"/>
      <point x="460" y="700" type="line" smooth="yes"/>
      <point x="435.7931034482759" y="700"/>
      <point x="421.0" y="685.0"/>
      <point x="421" y="663" type="curve" smooth="yes"/>
      <point x="421" y="644"/>
      <point x="432" y="625"/>
      <point x="456" y="617" type="curve" smooth="yes"/>
      <point x="490" y="604"/>
      <point x="497" y="590"/>
      <point x="498" y="575" type="curve" smooth="yes"/>
      <point x="498" y="564"/>
      <point x="494" y="550"/>
      <point x="486" y="534" type="curve" smooth="yes"/>
      <point x="351" y="253" type="line"/>
      <point x="395" y="273" type="line"/>
      <point x="252" y="557" type="line" smooth="yes"/>
      <point x="237" y="587"/>
      <point x="251" y="612"/>
      <point x="282" y="619" type="curve" smooth="yes"/>
      <point x="303" y="624" type="line" smooth="yes"/>
      <point x="319" y="628"/>
      <point x="327" y="640"/>
      <point x="327" y="663" type="curve" smooth="yes"/>
      <point x="327.0" y="686.0"/>
      <point x="313" y="700"/>
      <point x="292" y="700" type="curve" smooth="yes"/>
      <point x="46" y="700" type="line" smooth="yes"/>
      <point x="20.870967741935484" y="700"/>
      <point x="5.0" y="688.0"/>
      <point x="5" y="665" type="curve" smooth="yes"/>
      <point x="5" y="647"/>
      <point x="9" y="629"/>
      <point x="30" y="621" type="curve" smooth="yes"/>
      <point x="56" y="612"/>
      <point x="58" y="599"/>
      <point x="78" y="561" type="curve" smooth="yes"/>
      <point x="265" y="205" type="line"/>
    </contour>
  </outline>
</glyph>
<glyph name="backslash" format="2">
  <advance width="420"/>
  <unicode hex="005C"/>
  <outline>
    <contour>
      <point x="32" y="682" type="curve" smooth="yes"/>
      <point x="19" y="720"/>
      <point x="23" y="756"/>
      <point x="59" y="767" type="curve" smooth="yes"/>
      <point x="91" y="776"/>
      <point x="123" y="747"/>
      <point x="134" y="712" type="curve" smooth="yes"/>
      <point x="155" y="647"/>
      <point x="158" y="560"/>
      <point x="231" y="345" type="curve" smooth="yes"/>
      <point x="310" y="111"/>
      <point x="359" y="63"/>
      <point x="388" y="-18" type="curve" smooth="yes"/>
      <point x="402.0" y="-57.0"/>
      <point x="392" y="-87"/>
      <point x="356" y="-95" type="curve" smooth="yes"/>
      <point x="327" y="-102.0"/>
      <point x="294.70165760049997" y="-86.0410422873214"/>
      <point x="281" y="-42" type="curve" smooth="yes"/>
      <point x="257" y="34"/>
      <point x="265" y="84"/>
      <point x="188" y="327" type="curve" smooth="yes"/>
      <point x="118" y="549"/>
      <point x="58" y="609"/>
    </contour>
  </outline>
</glyph>
<glyph name="c" format="2">
  <advance width="491"/>
  <unicode hex="0063"/>
  <anchor x="279" y="527" name="center"/>
  <outline>
    <contour>
      <point x="477" y="346" type="curve" smooth="yes"/>
      <point x="477.0" y="432.0"/>
      <point x="402.93023255813955" y="489.0"/>
      <point x="295" y="489" type="curve" smooth="yes"/>
      <point x="134.92857142857142" y="489.0"/>
      <point x="25.0" y="378.0"/>
      <point x="25" y="220" type="curve" smooth="yes"/>
      <point x="25" y="81.0"/>
      <point x="130.0" y="-15"/>
      <point x="269" y="-15" type="curve" smooth="yes"/>
      <point x="380" y="-15"/>
      <point x="468.0" y="51.0"/>
      <point x="468" y="130" type="curve" smooth="yes"/>
      <point x="468.0" y="151.0"/>
      <point x="457.0" y="166.0"/>
      <point x="442" y="166" type="curve" smooth="yes"/>
      <point x="430" y="166"/>
      <point x="418.4634154160115" y="160.46341541601154"/>
      <point x="399" y="141" type="curve" smooth="yes"/>
      <point x="379.99299762959174" y="121.99299762959174"/>
      <point x="353.2040816326531" y="110.0"/>
      <point x="311" y="110.0" type="curve" smooth="yes"/>
      <point x="230.40298507462688" y="110.0"/>
      <point x="167.0" y="176.0"/>
      <point x="167" y="269" type="curve" smooth="yes"/>
      <point x="167" y="348"/>
      <point x="203.0" y="411.0"/>
      <point x="259" y="411" type="curve" smooth="yes"/>
      <point x="295.0" y="411.0"/>
      <point x="315" y="392.0"/>
      <point x="315" y="364" type="curve" smooth="yes"/>
      <point x="315" y="348" type="line" smooth="yes"/>
      <point x="315" y="302"/>
      <point x="349.0" y="267.0"/>
      <point x="398" y="267" type="curve" smooth="yes"/>
      <point x="444.0" y="267.0"/>
      <point x="477.0" y="301"/>
    </contour>
  </outline>
</glyph>
<glyph name="e" format="2">
  <advance width="506"/>
  <unicode hex="0065"/>
  <anchor x="260" y="527" name="center"/>
  <outline>
    <contour>
      <point x="486" y="303" type="curve" smooth="yes"/>
      <point x="486" y="412"/>
      <point x="404" y="489"/>
      <point x="287" y="489.0" type="curve" smooth="yes"/>
      <point x="124" y="489"/>
      <point x="20" y="383"/>
      <point x="20" y="223" type="curve" smooth="yes"/>
      <point x="20.0" y="85.0"/>
      <point x="123.0" y="-15.0"/>
      <point x="265" y="-15" type="curve" smooth="yes"/>
      <point x="393.0" y="-15.0"/>
      <point x="484.0" y="65"/>
      <point x="484" y="133" type="curve" smooth="yes"/>
      <point x="484.0" y="156.0"/>
      <point x="474" y="167"/>
      <point x="460" y="167" type="curve" smooth="yes"/>
      <point x="447.0" y="167.0"/>
      <point x="434" y="160"/>
      <point x="412" y="141" type="curve" smooth="yes"/>
      <point x="381.0" y="113.0"/>
      <point x="357.0" y="102.0"/>
      <point x="315" y="102" type="curve" smooth="yes"/>
      <point x="232.0" y="102.0"/>
      <point x="158.0" y="170.0"/>
      <point x="158" y="266" type="curve" smooth="yes"/>
      <point x="158.0" y="360.0"/>
      <point x="197.0" y="412.0"/>
      <point x="253" y="412" type="curve" smooth="yes"/>
      <point x="297.0" y="412.0"/>
      <point x="329.0" y="374.0"/>
      <point x="329" y="321" type="curve" smooth="yes"/>
      <point x="329" y="297"/>
      <point x="314.0" y="283.0"/>
      <point x="291" y="283" type="curve" smooth="yes"/>
      <point x="112" y="283" type="line"/>
      <point x="112" y="230" type="line"/>
      <point x="408" y="230" type="line" smooth="yes"/>
      <point x="456" y="230"/>
      <point x="486" y="258"/>
    </contour>
  </outline>
</glyph>
<glyph name="s" format="2">
  <advance width="477"/>
  <unicode hex="0073"/>
  <outline>
    <contour>
      <point x="247" y="55" type="curve" smooth="yes"/>
      <point x="201" y="55.0"/>
      <point x="160" y="74"/>
      <point x="128" y="125" type="curve" smooth="yes"/>
      <point x="107" y="156"/>
      <point x="91" y="167.0"/>
      <point x="75" y="167.0" type="curve" smooth="yes"/>
      <point x="53" y="167.0"/>
      <point x="43.0" y="150.0"/>
      <point x="43.0" y="124" type="curve" smooth="yes"/>
      <point x="43" y="115"/>
      <point x="45" y="98"/>
      <point x="50" y="79" type="curve" smooth="yes"/>
      <point x="64" y="24" type="line" smooth="yes"/>
      <point x="71" y="-5"/>
      <point x="88" y="-15"/>
      <point x="107" y="-15" type="curve" smooth="yes"/>
      <point x="120" y="-15"/>
      <point x="130" y="0"/>
      <point x="143" y="0" type="curve" smooth="yes"/>
      <point x="155" y="0.0"/>
      <point x="189" y="-15.0"/>
      <point x="255" y="-15" type="curve" smooth="yes"/>
      <point x="361" y="-15.0"/>
      <point x="442.0" y="52.0"/>
      <point x="442" y="139" type="curve" smooth="yes"/>
      <point x="442.0" y="212.0"/>
      <point x="405" y="280"/>
      <point x="284" y="300" type="curve" smooth="yes"/>
      <point x="195.0" y="315.0"/>
      <point x="166.0" y="339.0"/>
      <point x="166" y="378" type="curve" smooth="yes"/>
      <point x="166.0" y="402.0"/>
      <point x="190.0" y="422.0"/>
      <point x="229" y="422" type="curve" smooth="yes"/>
      <point x="277.0" y="422.0"/>
      <point x="309.0" y="398.0"/>
      <point x="355" y="327" type="curve" smooth="yes"/>
      <point x="366" y="308"/>
      <point x="387" y="294"/>
      <point x="405" y="294" type="curve" smooth="yes"/>
      <point x="430" y="294"/>
      <point x="441" y="312"/>
      <point x="441" y="329" type="curve" smooth="yes"/>
      <point x="441" y="346"/>
      <point x="436" y="366"/>
      <point x="424" y="395" type="curve" smooth="yes"/>
      <point x="401" y="450" type="line" smooth="yes"/>
      <point x="389" y="478"/>
      <point x="378" y="490"/>
      <point x="361" y="490" type="curve" smooth="yes"/>
      <point x="346" y="490"/>
      <point x="339" y="472"/>
      <point x="323" y="472" type="curve" smooth="yes"/>
      <point x="305.0" y="472.0"/>
      <point x="274" y="489"/>
      <point x="225" y="489" type="curve" smooth="yes"/>
      <point x="91.0" y="489"/>
      <point x="26.0" y="414"/>
      <point x="26" y="331" type="curve" smooth="yes"/>
      <point x="26.0" y="251.0"/>
      <point x="77.0" y="195.0"/>
      <point x="196" y="170" type="curve" smooth="yes"/>
      <point x="271" y="154"/>
      <point x="298.0" y="130.0"/>
      <point x="298" y="98" type="curve" smooth="yes"/>
      <point x="298.0" y="74.0"/>
      <point x="279" y="55.0"/>
    </contour>
  </outline>
</glyph>
<glyph name="u" format="2">
  <advance width="615"/>
  <unicode hex="0075"/>
  <anchor x="297" y="534" name="center"/>
  <outline>
    <contour>
      <point x="540" y="452" type="line" smooth="yes"/>
      <point x="540.0" y="476.0"/>
      <point x="527" y="490"/>
      <point x="505" y="490" type="curve" smooth="yes"/>
      <point x="490.0" y="490.0"/>
      <point x="476" y="486"/>
      <point x="451" y="479" type="curve" smooth="yes"/>
      <point x="357" y="453" type="line" smooth="yes"/>
      <point x="336" y="447"/>
      <point x="323.0" y="433.0"/>
      <point x="323" y="418" type="curve" smooth="yes"/>
      <point x="323.0" y="402.0"/>
      <point x="338.0" y="389"/>
      <point x="356" y="389" type="curve" smooth="yes"/>
      <point x="359" y="389" type="line" smooth="yes"/>
      <point x="381" y="389"/>
      <point x="386.0" y="378.0"/>
      <point x="386" y="352" type="curve" smooth="yes"/>
      <point x="386" y="70" type="line" smooth="yes"/>
      <point x="386" y="27"/>
      <point x="416.0" y="0"/>
      <point x="459" y="0" type="curve" smooth="yes"/>
      <point x="566" y="0" type="line" smooth="yes"/>
      <point x="594" y="0"/>
      <point x="605" y="14"/>
      <point x="605" y="35" type="curve" smooth="yes"/>
      <point x="605" y="55"/>
      <point x="592" y="62"/>
      <point x="578" y="67" type="curve" smooth="yes"/>
      <point x="570" y="70" type="line" smooth="yes"/>
      <point x="551" y="77"/>
      <point x="540" y="94"/>
      <point x="540" y="129" type="curve" smooth="yes"/>
    </contour>
    <contour>
      <point x="222" y="452" type="line" smooth="yes"/>
      <point x="222.0" y="476.0"/>
      <point x="210" y="490"/>
      <point x="191" y="490" type="curve" smooth="yes"/>
      <point x="176.0" y="490.0"/>
      <point x="163" y="486"/>
      <point x="136" y="479" type="curve" smooth="yes"/>
      <point x="45" y="455" type="line" smooth="yes"/>
      <point x="21" y="449"/>
      <point x="8.0" y="436.0"/>
      <point x="8" y="417" type="curve" smooth="yes"/>
      <point x="8.0" y="402.0"/>
      <point x="21.0" y="389"/>
      <point x="38" y="389" type="curve" smooth="yes"/>
      <point x="44" y="389" type="line" smooth="yes"/>
      <point x="66" y="389"/>
      <point x="73.0" y="378.0"/>
      <point x="73" y="352" type="curve" smooth="yes"/>
      <point x="73.0" y="145" type="line" smooth="yes"/>
      <point x="73" y="50"/>
      <point x="147" y="-9"/>
      <point x="241" y="-9.0" type="curve" smooth="yes"/>
      <point x="314" y="-9.0"/>
      <point x="367" y="18.0"/>
      <point x="415" y="79" type="curve"/>
      <point x="399" y="128" type="line"/>
      <point x="364" y="93"/>
      <point x="335" y="81"/>
      <point x="300" y="81" type="curve" smooth="yes"/>
      <point x="250.0" y="81"/>
      <point x="222" y="114"/>
      <point x="222" y="166" type="curve" smooth="yes"/>
    </contour>
  </outline>
</glyph>
<glyph name="v" format="2">
  <advance width="570"/>
  <unicode hex="0076"/>
  <outline>
    <contour>
      <point x="258" y="-10" type="curve" smooth="yes"/>
      <point x="315" y="-10" type="line" smooth="yes"/>
      <point x="333.0" y="-10"/>
      <point x="355.0" y="0.0"/>
      <point x="367" y="28" type="curve" smooth="yes"/>
      <point x="500" y="334" type="line" smooth="yes"/>
      <point x="514" y="367"/>
      <point x="523" y="387"/>
      <point x="533" y="393" type="curve" smooth="yes"/>
      <point x="555" y="406"/>
      <point x="563" y="416"/>
      <point x="563" y="438" type="curve" smooth="yes"/>
      <point x="563" y="459"/>
      <point x="551" y="475"/>
      <point x="526" y="475" type="curve" smooth="yes"/>
      <point x="382" y="475.0" type="line" smooth="yes"/>
      <point x="360.0" y="475.0"/>
      <point x="347.0" y="463.0"/>
      <point x="347.0" y="445" type="curve" smooth="yes"/>
      <point x="347.0" y="428.0"/>
      <point x="360.0" y="420.0"/>
      <point x="381" y="409" type="curve" smooth="yes"/>
      <point x="405" y="397" type="line" smooth="yes"/>
      <point x="419" y="390"/>
      <point x="427.0" y="382"/>
      <point x="427" y="369" type="curve" smooth="yes"/>
      <point x="427" y="353"/>
      <point x="421" y="339"/>
      <point x="410" y="310" type="curve" smooth="yes"/>
      <point x="312" y="69" type="line" smooth="yes"/>
      <point x="348" y="64" type="line"/>
      <point x="232" y="349" type="line" smooth="yes"/>
      <point x="227" y="362"/>
      <point x="221" y="371"/>
      <point x="221" y="384" type="curve" smooth="yes"/>
      <point x="221" y="396"/>
      <point x="232" y="398"/>
      <point x="251" y="406" type="curve" smooth="yes"/>
      <point x="265" y="412" type="line" smooth="yes"/>
      <point x="285" y="421"/>
      <point x="299" y="430"/>
      <point x="299" y="447" type="curve" smooth="yes"/>
      <point x="299.0" y="463.0"/>
      <point x="288.0" y="475.0"/>
      <point x="264" y="475.0" type="curve" smooth="yes"/>
      <point x="42" y="475" type="line" smooth="yes"/>
      <point x="18" y="475"/>
      <point x="7" y="462"/>
      <point x="7" y="442" type="curve" smooth="yes"/>
      <point x="7" y="424"/>
      <point x="16" y="412"/>
      <point x="37" y="399" type="curve" smooth="yes"/>
      <point x="52" y="390"/>
      <point x="55" y="378"/>
      <point x="63" y="358" type="curve" smooth="yes"/>
      <point x="199" y="39" type="line" smooth="yes"/>
      <point x="213.0" y="5.0"/>
      <point x="231.0" y="-10"/>
    </contour>
  </outline>
</glyph>
<glyph name="braceleft" format="2">
  <advance width="439"/>
  <unicode hex="007B"/>
  <outline>
    <contour>
      <point x="245" y="289" type="curve" smooth="yes"/>
      <point x="245" y="299"/>
      <point x="253" y="308"/>
      <point x="266" y="308" type="curve" smooth="yes"/>
      <point x="299" y="308"/>
      <point x="321" y="342"/>
      <point x="321" y="390" type="curve" smooth="yes"/>
      <point x="321" y="465"/>
      <point x="273" y="530"/>
      <point x="273" y="598" type="curve" smooth="yes"/>
      <point x="273" y="649"/>
      <point x="313" y="690"/>
      <point x="361" y="690" type="curve" smooth="yes"/>
      <point x="381" y="690" type="line" smooth="yes"/>
      <point x="407" y="690"/>
      <point x="424" y="702"/>
      <point x="424" y="723" type="curve" smooth="yes"/>
      <point x="424" y="741"/>
      <point x="411" y="755"/>
      <point x="383" y="755" type="curve" smooth="yes"/>
      <point x="311" y="755" type="line" smooth="yes"/>
      <point x="200" y="755"/>
      <point x="121" y="692"/>
      <point x="121" y="600" type="curve" smooth="yes"/>
      <point x="121" y="512"/>
      <point x="210" y="455"/>
      <point x="210" y="384" type="curve" smooth="yes"/>
      <point x="210.0" y="354.0"/>
      <point x="184.9939486105357" y="336.99976725425137"/>
      <point x="159" y="336" type="curve" smooth="yes"/>
      <point x="129.0" y="336.0"/>
      <point x="121.0" y="356.0"/>
      <point x="90" y="356" type="curve" smooth="yes"/>
      <point x="61" y="356"/>
      <point x="36" y="325"/>
      <point x="36" y="290" type="curve" smooth="yes"/>
      <point x="36" y="252"/>
      <point x="58" y="224"/>
      <point x="90" y="224" type="curve" smooth="yes"/>
      <point x="124.0" y="224.0"/>
      <point x="137.0" y="244.0"/>
      <point x="161" y="244" type="curve" smooth="yes"/>
      <point x="187.9945945572242" y="243.00020020158428"/>
      <point x="210.0" y="222.0"/>
      <point x="210" y="191" type="curve" smooth="yes"/>
      <point x="210" y="124"/>
      <point x="121" y="65"/>
      <point x="121" y="-30" type="curve" smooth="yes"/>
      <point x="121" y="-120"/>
      <point x="200" y="-185"/>
      <point x="311" y="-185" type="curve" smooth="yes"/>
      <point x="383" y="-185" type="line" smooth="yes"/>
      <point x="411" y="-185"/>
      <point x="424" y="-167"/>
      <point x="424" y="-153" type="curve" smooth="yes"/>
      <point x="424" y="-129"/>
      <point x="407" y="-120"/>
      <point x="381" y="-120" type="curve" smooth="yes"/>
      <point x="361" y="-120" type="line" smooth="yes"/>
      <point x="313" y="-120"/>
      <point x="273" y="-78"/>
      <point x="273" y="-28" type="curve" smooth="yes"/>
      <point x="273" y="45"/>
      <point x="321" y="114"/>
      <point x="321" y="186" type="curve" smooth="yes"/>
      <point x="321" y="232"/>
      <point x="302" y="270"/>
      <point x="266" y="270" type="curve" smooth="yes"/>
      <point x="253" y="270"/>
      <point x="245" y="276"/>
    </contour>
  </outline>
</glyph>
<glyph name="bar" format="2">
  <advance width="357"/>
  <unicode hex="007C"/>
  <outline>
    <contour>
      <point x="151" y="265" type="curve" smooth="yes"/>
      <point x="151.0" y="167.81272649513585"/>
      <point x="110.0" y="-86.0"/>
      <point x="110" y="-180" type="curve" smooth="yes"/>
      <point x="110.0" y="-223.0"/>
      <point x="137.5675675675676" y="-250.0"/>
      <point x="178" y="-250" type="curve" smooth="yes"/>
      <point x="218.85714285714283" y="-250.0"/>
      <point x="243.0" y="-222.96491228070175"/>
      <point x="243" y="-183" type="curve" smooth="yes"/>
      <point x="243.0" y="-80.93537412010977"/>
      <point x="204.0" y="159.11077024315315"/>
      <point x="204" y="263" type="curve" smooth="yes"/>
      <point x="204.0" y="343.20700360637767"/>
      <point x="239" y="604.0"/>
      <point x="239" y="697" type="curve" smooth="yes"/>
      <point x="239" y="735"/>
      <point x="214.52941176470586" y="765.0"/>
      <point x="175" y="765" type="curve" smooth="yes"/>
      <point x="137.3529411764706" y="765.0"/>
      <point x="111" y="739"/>
      <point x="111" y="695" type="curve" smooth="yes"/>
      <point x="111.0" y="608.0"/>
      <point x="151.0" y="354.6106048053024"/>
    </contour>
  </outline>
</glyph>
<glyph name="acute" format="2">
  <advance width="295"/>
  <unicode hex="00B4"/>
  <anchor x="56" y="482" name="center"/>
  <outline>
    <contour>
      <point x="51.0" y="579.0" type="curve" smooth="yes"/>
      <point x="118" y="639" type="line" smooth="yes"/>
      <point x="163.38798680733544" y="679.6459583349273"/>
      <point x="204.6013071895425" y="700.0"/>
      <point x="243.0" y="700.0" type="curve" smooth="yes"/>
      <point x="282.9" y="700.0"/>
      <point x="300.0" y="684.0"/>
      <point x="300.0" y="654.0" type="curve" smooth="yes"/>
      <point x="300.0" y="626.0"/>
      <point x="273.79684810588856" y="601.0585816476498"/>
      <point x="227" y="580" type="curve" smooth="yes"/>
      <point x="127" y="535" type="line" smooth="yes"/>
      <point x="98" y="522"/>
      <point x="74.72727272727272" y="514.0"/>
      <point x="58.0" y="514.0" type="curve" smooth="yes"/>
      <point x="39.03846153846153" y="514.0"/>
      <point x="29.0" y="524.6363636363636"/>
      <point x="29.0" y="540.0" type="curve" smooth="yes"/>
      <point x="29.0" y="553.6046511627907"/>
      <point x="39" y="568"/>
    </contour>
  </outline>
</glyph>
<glyph name="cedilla" format="2">
  <advance width="306"/>
  <unicode hex="00B8"/>
  <outline>
    <contour>
      <point x="133" y="8" type="line"/>
      <point x="88.0" y="-71.0" type="line" smooth="yes"/>
      <point x="73.45388928236433" y="-96.5365054820715"/>
      <point x="86.0" y="-120.0"/>
      <point x="110" y="-120" type="curve" smooth="yes"/>
      <point x="116.0" y="-120.0"/>
      <point x="120.91999999999999" y="-116.0"/>
      <point x="131.0" y="-116.0" type="curve" smooth="yes"/>
      <point x="153.16666666666666" y="-116.0"/>
      <point x="166.0" y="-129.0"/>
      <point x="166.0" y="-157.0" type="curve" smooth="yes"/>
      <point x="166.0" y="-184.0"/>
      <point x="149.94117647058823" y="-198.0"/>
      <point x="127" y="-198" type="curve" smooth="yes"/>
      <point x="111.0909090909091" y="-198.0"/>
      <point x="102.0" y="-191.0"/>
      <point x="102" y="-181" type="curve" smooth="yes"/>
      <point x="102.0" y="-169.0" type="line" smooth="yes"/>
      <point x="102.0" y="-141.0"/>
      <point x="78.77777777777777" y="-123.0"/>
      <point x="47.0" y="-123.0" type="curve" smooth="yes"/>
      <point x="15.347826086956523" y="-123.0"/>
      <point x="-9.0" y="-145.0"/>
      <point x="-9" y="-173" type="curve" smooth="yes"/>
      <point x="-9.0" y="-215.0"/>
      <point x="44.33653846153844" y="-245.0"/>
      <point x="120.0" y="-245.0" type="curve" smooth="yes"/>
      <point x="208.6825396825397" y="-245.0"/>
      <point x="271.0" y="-206.0"/>
      <point x="271" y="-147" type="curve" smooth="yes"/>
      <point x="271.0" y="-94.0"/>
      <point x="233.0" y="-65.0"/>
      <point x="177" y="-65" type="curve" smooth="yes"/>
      <point x="142.7872340425532" y="-65.0"/>
      <point x="118.10135920245494" y="-73.42662971077864"/>
      <point x="110.0" y="-85.0" type="curve"/>
      <point x="155" y="-90" type="line"/>
      <point x="204" y="9" type="line"/>
    </contour>
  </outline>
</glyph>
<glyph name="multiply" format="2">
  <advance width="452"/>
  <unicode hex="00D7"/>
  <outline>
    <contour>
      <point x="59" y="138" type="curve" smooth="yes"/>
      <point x="80" y="117"/>
      <point x="115" y="119"/>
      <point x="136" y="141" type="curve" smooth="yes"/>
      <point x="179.0" y="184.0"/>
      <point x="221.0" y="245.0"/>
      <point x="253" y="278" type="curve" smooth="yes"/>
      <point x="287.0" y="311.0"/>
      <point x="346.0" y="351.0"/>
      <point x="386" y="391" type="curve" smooth="yes"/>
      <point x="410" y="415"/>
      <point x="410" y="447"/>
      <point x="389" y="468" type="curve" smooth="yes"/>
      <point x="368" y="489"/>
      <point x="335" y="489"/>
      <point x="311" y="466" type="curve" smooth="yes"/>
      <point x="271.0" y="426.0"/>
      <point x="232.0" y="367.0"/>
      <point x="198" y="333" type="curve" smooth="yes"/>
      <point x="160.0" y="295.0"/>
      <point x="104.0" y="259.0"/>
      <point x="62" y="216" type="curve" smooth="yes"/>
      <point x="42" y="197"/>
      <point x="38" y="159"/>
    </contour>
    <contour>
      <point x="393" y="140" type="curve" smooth="yes"/>
      <point x="413" y="160"/>
      <point x="411" y="195"/>
      <point x="390" y="216" type="curve" smooth="yes"/>
      <point x="347.0" y="261.0"/>
      <point x="284.0" y="301.0"/>
      <point x="253" y="334" type="curve" smooth="yes"/>
      <point x="219.0" y="367.0"/>
      <point x="180.0" y="426.0"/>
      <point x="139" y="467" type="curve" smooth="yes"/>
      <point x="115" y="491"/>
      <point x="83" y="490"/>
      <point x="63" y="470" type="curve" smooth="yes"/>
      <point x="42" y="448"/>
      <point x="41" y="415"/>
      <point x="64" y="392" type="curve" smooth="yes"/>
      <point x="105.0" y="351.0"/>
      <point x="164.0" y="312.0"/>
      <point x="197" y="279" type="curve" smooth="yes"/>
      <point x="235.0" y="241.0"/>
      <point x="272.0" y="185.0"/>
      <point x="314" y="142" type="curve" smooth="yes"/>
      <point x="334" y="122"/>
      <point x="371" y="119"/>
    </contour>
  </outline>
</glyph>
<glyph name="Hbar" format="2">
  <advance width="843"/>
  <unicode hex="0126"/>
  <outline>
    <contour>
      <point x="41.0" y="504" type="curve" smooth="yes"/>
      <point x="41.0" y="485.0"/>
      <point x="52" y="473.0"/>
      <point x="71" y="473.0" type="curve" smooth="yes"/>
      <point x="740" y="473.0" type="line" smooth="yes"/>
      <point x="759.0" y="473.0"/>
      <point x="772.0" y="485.0"/>
      <point x="772" y="504" type="curve" smooth="yes"/>
      <point x="772.0" y="522.0"/>
      <point x="759.0" y="535.0"/>
      <point x="740" y="535" type="curve" smooth="yes"/>
      <point x="72" y="535" type="line" smooth="yes"/>
      <point x="54" y="535"/>
      <point x="41.0" y="522.0"/>
    </contour>
    <component base="H"/>
  </outline>
</glyph>
<glyph name="Schwa" format="2">
  <advance width="686"/>
  <unicode hex="018F"/>
  <outline>
    <contour>
      <point x="33" y="203" type="curve" smooth="yes"/>
      <point x="33.0" y="80.375"/>
      <point x="140.0" y="-15.0"/>
      <point x="292" y="-15" type="curve" smooth="yes"/>
      <point x="503.819209039548" y="-15.0"/>
      <point x="656.0" y="149.775"/>
      <point x="656" y="375" type="curve" smooth="yes"/>
      <point x="656.0" y="562.5151515151515"/>
      <point x="515.6687898089172" y="715.0"/>
      <point x="332" y="715" type="curve" smooth="yes"/>
      <point x="156.0" y="715.0"/>
      <point x="36.0" y="627.0"/>
      <point x="36" y="560" type="curve" smooth="yes"/>
      <point x="36.0" y="540"/>
      <point x="49.391304347826086" y="527.0"/>
      <point x="64" y="527" type="curve" smooth="yes"/>
      <point x="82.33333333333333" y="527.0"/>
      <point x="100.72621035541464" y="538.741420891225"/>
      <point x="119" y="556" type="curve" smooth="yes"/>
      <point x="152.62921554141627" y="585.8926360368145"/>
      <point x="194.0" y="607.0"/>
      <point x="244" y="607" type="curve" smooth="yes"/>
      <point x="379.48523206751054" y="607.0"/>
      <point x="491.0" y="499.15140845070425"/>
      <point x="491" y="326" type="curve" smooth="yes"/>
      <point x="491.0" y="147.0"/>
      <point x="421.3529411764706" y="74.0"/>
      <point x="331" y="74" type="curve" smooth="yes"/>
      <point x="254.0" y="74"/>
      <point x="207.0" y="114"/>
      <point x="207" y="173" type="curve" smooth="yes"/>
      <point x="207.0" y="224"/>
      <point x="237.0" y="251.0"/>
      <point x="293" y="251" type="curve" smooth="yes"/>
      <point x="557" y="251" type="line"/>
      <point x="557" y="316" type="line"/>
      <point x="156" y="316" type="line" smooth="yes"/>
      <point x="78.37864077669903" y="316"/>
      <point x="33.0" y="277.4146341463415"/>
    </contour>
  </outline>
</glyph>
<glyph name="circumflex" format="2">
  <advance width="364"/>
  <unicode hex="02C6"/>
  <outline>
    <contour>
      <point x="53" y="565" type="curve" smooth="yes"/>
      <point x="97" y="623" type="line" smooth="yes"/>
      <point x="128" y="664"/>
      <point x="156.0" y="677.0"/>
      <point x="192" y="677" type="curve" smooth="yes"/>
      <point x="225.0" y="677.0"/>
      <point x="254" y="664"/>
      <point x="286" y="623" type="curve" smooth="yes"/>
      <point x="331" y="565" type="line" smooth="yes"/>
      <point x="338" y="556"/>
      <point x="348.0" y="543.0"/>
      <point x="348" y="532" type="curve" smooth="yes"/>
      <point x="348.0" y="516.0769230769231"/>
      <point x="339.67999999999995" y="509.0"/>
      <point x="322" y="509" type="curve" smooth="yes"/>
      <point x="309.1818181818182" y="509.0"/>
      <point x="298" y="514"/>
      <point x="275" y="530" type="curve" smooth="yes"/>
      <point x="160" y="607" type="line"/>
      <point x="224" y="607" type="line"/>
      <point x="109" y="530" type="line" smooth="yes"/>
      <point x="87" y="515"/>
      <point x="74.81818181818181" y="510.0"/>
      <point x="62" y="510" type="curve" smooth="yes"/>
      <point x="44.32" y="510.0"/>
      <point x="36.0" y="516.8148148148148"/>
      <point x="36" y="533" type="curve" smooth="yes"/>
      <point x="36.0" y="544.4285714285714"/>
      <point x="46" y="556"/>
    </contour>
  </outline>
</glyph>
<glyph name="caron" format="2">
  <advance width="364"/>
  <unicode hex="02C7"/>
  <outline>
    <contour>
      <point x="53" y="622" type="curve" smooth="yes"/>
      <point x="97" y="564" type="line" smooth="yes"/>
      <point x="128" y="523"/>
      <point x="156.0" y="510.0"/>
      <point x="192" y="510" type="curve" smooth="yes"/>
      <point x="225.0" y="510.0"/>
      <point x="254" y="523"/>
      <point x="286" y="564" type="curve" smooth="yes"/>
      <point x="331" y="622" type="line" smooth="yes"/>
      <point x="338" y="631"/>
      <point x="348.0" y="644.0"/>
      <point x="348" y="655" type="curve" smooth="yes"/>
      <point x="348.0" y="670.9230769230769"/>
      <point x="339.67999999999995" y="678.0"/>
      <point x="322" y="678" type="curve" smooth="yes"/>
      <point x="309.1818181818182" y="678.0"/>
      <point x="298" y="673"/>
      <point x="275" y="657" type="curve" smooth="yes"/>
      <point x="160" y="580" type="line"/>
      <point x="224" y="580" type="line"/>
      <point x="109" y="657" type="line" smooth="yes"/>
      <point x="87" y="672"/>
      <point x="74.81818181818181" y="677.0"/>
      <point x="62" y="677" type="curve" smooth="yes"/>
      <point x="44.32" y="677.0"/>
      <point x="36.0" y="670.1851851851852"/>
      <point x="36" y="654" type="curve" smooth="yes"/>
      <point x="36.0" y="642.5714285714286"/>
      <point x="46" y="631"/>
    </contour>
  </outline>
</glyph>
<glyph name="dotaccent" format="2">
  <advance width="237"/>
  <unicode hex="02D9"/>
  <outline>
    <contour>
      <point x="110.0" y="466.0" type="curve" smooth="yes"/>
      <point x="161" y="466"/>
      <point x="202" y="508"/>
      <point x="202" y="559" type="curve" smooth="yes"/>
      <point x="202" y="610"/>
      <point x="161.0" y="650.0"/>
      <point x="110.0" y="650.0" type="curve" smooth="yes"/>
      <point x="60.0" y="650.0"/>
      <point x="19" y="610"/>
      <point x="19" y="559" type="curve" smooth="yes"/>
      <point x="19" y="508"/>
      <point x="60" y="466"/>
    </contour>
  </outline>
</glyph>
<glyph name="horncmb" format="2">
  <unicode hex="031B"/>
  <anchor x="-105" y="348" name="center"/>
  <outline>
    <contour>
      <point x="120" y="482" type="curve" smooth="yes"/>
      <point x="135" y="477" type="line" smooth="yes"/>
      <point x="145" y="474"/>
      <point x="149" y="469"/>
      <point x="149" y="461" type="curve" smooth="yes"/>
      <point x="149.0" y="438.0"/>
      <point x="134" y="421.0"/>
      <point x="90" y="399" type="curve" smooth="yes"/>
      <point x="79" y="393"/>
      <point x="72.0" y="385"/>
      <point x="72.0" y="370" type="curve" smooth="yes"/>
      <point x="72.0" y="358.57142857142856"/>
      <point x="82.0" y="350.0"/>
      <point x="98" y="350.0" type="curve" smooth="yes"/>
      <point x="156.0" y="350.0"/>
      <point x="229.0" y="419.75342465753425"/>
      <point x="229" y="502" type="curve" smooth="yes"/>
      <point x="229" y="553.0"/>
      <point x="196.0" y="589.0"/>
      <point x="151" y="589" type="curve" smooth="yes"/>
      <point x="114.27868852459017" y="589.0"/>
      <point x="87.0" y="560"/>
      <point x="87" y="529" type="curve" smooth="yes"/>
      <point x="87.0" y="506.0"/>
      <point x="98.6536571449066" y="489.11544761836444"/>
    </contour>
  </outline>
</glyph>
<glyph name="dagger" format="2">
  <advance width="463"/>
  <unicode hex="2020"/>
  <outline>
    <contour>
      <point x="210" y="513" type="curve" smooth="yes"/>
      <point x="210.0" y="438.87600000000003"/>
      <point x="140.0" y="384.2739130434783"/>
      <point x="140" y="300" type="curve" smooth="yes"/>
      <point x="140.0" y="200.9825870646766"/>
      <point x="198.0" y="101.0"/>
      <point x="198" y="-119" type="curve" smooth="yes"/>
      <point x="198" y="-144"/>
      <point x="215.2857142857143" y="-156.0"/>
      <point x="231" y="-156" type="curve" smooth="yes"/>
      <point x="247.31578947368422" y="-156.0"/>
      <point x="262" y="-145"/>
      <point x="262" y="-120" type="curve" smooth="yes"/>
      <point x="262.0" y="100.0"/>
      <point x="321.0" y="197.93017456359104"/>
      <point x="321" y="298" type="curve" smooth="yes"/>
      <point x="321.0" y="388.8189655172414"/>
      <point x="253.0" y="440.48015873015873"/>
      <point x="253" y="513" type="curve" smooth="yes"/>
      <point x="253.0" y="594.0"/>
      <point x="301.0" y="623.7549668874173"/>
      <point x="301" y="661" type="curve" smooth="yes"/>
      <point x="301.0" y="705.8169014084507"/>
      <point x="269.0" y="735.0"/>
      <point x="230" y="735" type="curve" smooth="yes"/>
      <point x="187.0" y="735.0"/>
      <point x="158.0" y="708.972602739726"/>
      <point x="158" y="659" type="curve" smooth="yes"/>
      <point x="158.0" y="623.7248322147651"/>
      <point x="210.0" y="593.0"/>
    </contour>
    <contour>
      <point x="232" y="495" type="curve" smooth="yes"/>
      <point x="299.0" y="495.0"/>
      <point x="317.3709677419355" y="446.0"/>
      <point x="366" y="446" type="curve" smooth="yes"/>
      <point x="419" y="446.0"/>
      <point x="443.0" y="482.0"/>
      <point x="443" y="518" type="curve" smooth="yes"/>
      <point x="443.0" y="551.0"/>
      <point x="418" y="584.0"/>
      <point x="370" y="584" type="curve" smooth="yes"/>
      <point x="321.484375" y="584.0"/>
      <point x="302.0" y="535.0"/>
      <point x="232" y="535" type="curve" smooth="yes"/>
      <point x="164.0" y="535.0"/>
      <point x="145.65079365079364" y="585.0"/>
      <point x="96" y="585" type="curve" smooth="yes"/>
      <point x="43" y="585.0"/>
      <point x="20.0" y="555.0"/>
      <point x="20" y="519" type="curve" smooth="yes"/>
      <point x="20.0" y="477.0"/>
      <point x="46" y="449"/>
      <point x="97" y="448" type="curve" smooth="yes"/>
      <point x="146.67939216012795" y="446.9200132139103"/>
      <point x="164.0" y="495.0"/>
    </contour>
  </outline>
</glyph>
<glyph name="daggerdbl" format="2">
  <advance width="463"/>
  <unicode hex="2021"/>
  <outline>
    <contour>
      <point x="232" y="495" type="curve" smooth="yes"/>
      <point x="288" y="495"/>
      <point x="307" y="446"/>
      <point x="366" y="446" type="curve" smooth="yes"/>
      <point x="412" y="446"/>
      <point x="433" y="482"/>
      <point x="433" y="518" type="curve" smooth="yes"/>
      <point x="433" y="551"/>
      <point x="411" y="584"/>
      <point x="370" y="584" type="curve" smooth="yes"/>
      <point x="311" y="584"/>
      <point x="291" y="535"/>
      <point x="232" y="535" type="curve" smooth="yes"/>
      <point x="175" y="535"/>
      <point x="156" y="585"/>
      <point x="96" y="585" type="curve" smooth="yes"/>
      <point x="50" y="585"/>
      <point x="30" y="555"/>
      <point x="30" y="519" type="curve" smooth="yes"/>
      <point x="30" y="477"/>
      <point x="53" y="448"/>
      <point x="97" y="448" type="curve" smooth="yes"/>
      <point x="157" y="448"/>
      <point x="164" y="495"/>
    </contour>
    <contour>
      <point x="304" y="313" type="curve" smooth="yes"/>
      <point x="304.0" y="389.0"/>
      <point x="253.0" y="442.0"/>
      <point x="253" y="513" type="curve" smooth="yes"/>
      <point x="253" y="591"/>
      <point x="301" y="623"/>
      <point x="301" y="674" type="curve" smooth="yes"/>
      <point x="301" y="711"/>
      <point x="269" y="735"/>
      <point x="230" y="735" type="curve" smooth="yes"/>
      <point x="187" y="735"/>
      <point x="158" y="713"/>
      <point x="158" y="672" type="curve" smooth="yes"/>
      <point x="158" y="623"/>
      <point x="210" y="590"/>
      <point x="210" y="513" type="curve" smooth="yes"/>
      <point x="210.0" y="445.0"/>
      <point x="157.0" y="389.0"/>
      <point x="157" y="314" type="curve" smooth="yes"/>
      <point x="157.0" y="263.95"/>
      <point x="188.0" y="237.0"/>
      <point x="230" y="237.0" type="curve" smooth="yes"/>
      <point x="277.0" y="237.0"/>
      <point x="304.0" y="264.8987341772152"/>
    </contour>
    <contour>
      <point x="232" y="-7" type="curve" smooth="yes"/>
      <point x="164" y="-7"/>
      <point x="157" y="40"/>
      <point x="97" y="40" type="curve" smooth="yes"/>
      <point x="53" y="40"/>
      <point x="30" y="11"/>
      <point x="30" y="-31" type="curve" smooth="yes"/>
      <point x="30" y="-67"/>
      <point x="50" y="-97"/>
      <point x="96" y="-97" type="curve" smooth="yes"/>
      <point x="156" y="-97"/>
      <point x="175" y="-47"/>
      <point x="232" y="-47" type="curve" smooth="yes"/>
      <point x="291" y="-47"/>
      <point x="311" y="-96"/>
      <point x="370" y="-96" type="curve" smooth="yes"/>
      <point x="411" y="-96"/>
      <point x="433" y="-63"/>
      <point x="433" y="-30" type="curve" smooth="yes"/>
      <point x="433" y="6"/>
      <point x="412" y="42"/>
      <point x="366" y="42" type="curve" smooth="yes"/>
      <point x="307" y="42"/>
      <point x="288" y="-7"/>
    </contour>
    <contour>
      <point x="304.0" y="175.0" type="curve" smooth="yes"/>
      <point x="304.0" y="223.1012658227848"/>
      <point x="277.0" y="251.0"/>
      <point x="230.0" y="251.0" type="curve" smooth="yes"/>
      <point x="188.0" y="251.0"/>
      <point x="157.0" y="224.05"/>
      <point x="157.0" y="174.0" type="curve" smooth="yes"/>
      <point x="157.0" y="99.0"/>
      <point x="210.0" y="43.0"/>
      <point x="210.0" y="-25.0" type="curve" smooth="yes"/>
      <point x="210.0" y="-102.0"/>
      <point x="158.0" y="-135.0"/>
      <point x="158.0" y="-184.0" type="curve" smooth="yes"/>
      <point x="158.0" y="-225.0"/>
      <point x="187.0" y="-247.0"/>
      <point x="230.0" y="-247.0" type="curve" smooth="yes"/>
      <point x="269.0" y="-247.0"/>
      <point x="301.0" y="-223.0"/>
      <point x="301.0" y="-186.0" type="curve" smooth="yes"/>
      <point x="301.0" y="-135.0"/>
      <point x="253.0" y="-103.0"/>
      <point x="253.0" y="-25.0" type="curve" smooth="yes"/>
      <point x="253.0" y="46.0"/>
      <point x="304.0" y="99.0"/>
    </contour>
  </outline>
</glyph>
<glyph name="fraction" format="2">
  <advance width="656"/>
  <unicode hex="2044"/>
  <outline>
    <contour>
      <point x="582" y="546" type="curve" smooth="yes"/>
      <point x="604.0" y="569.0"/>
      <point x="615.0" y="593.0"/>
      <point x="615.0" y="617" type="curve" smooth="yes"/>
      <point x="615.0" y="642.0"/>
      <point x="593.0" y="665.0"/>
      <point x="564" y="665.0" type="curve" smooth="yes"/>
      <point x="534.0" y="665.0"/>
      <point x="508.0" y="651.0"/>
      <point x="485" y="617" type="curve" smooth="yes"/>
      <point x="452.53198042380205" y="568.7899103262515"/>
      <point x="425.9518438087349" y="495.3666563255164"/>
      <point x="323" y="363" type="curve" smooth="yes"/>
      <point x="205.0" y="212.0"/>
      <point x="114.0" y="163.0"/>
      <point x="69" y="115" type="curve" smooth="yes"/>
      <point x="44.0" y="88.0"/>
      <point x="34.0" y="64.0"/>
      <point x="34" y="35" type="curve" smooth="yes"/>
      <point x="34.0" y="8"/>
      <point x="53" y="-15.0"/>
      <point x="90" y="-15.0" type="curve" smooth="yes"/>
      <point x="124.0" y="-15.0"/>
      <point x="151.0" y="3.0"/>
      <point x="176" y="38" type="curve" smooth="yes"/>
      <point x="214.0" y="90.0"/>
      <point x="244.0" y="182.0"/>
      <point x="362" y="331" type="curve" smooth="yes"/>
      <point x="467.4120031945643" y="464.9816115370163"/>
      <point x="539.8170965662983" y="502.8360988120262"/>
    </contour>
  </outline>
</glyph>
<glyph name="four.superior" format="2">
  <advance width="379"/>
  <unicode hex="2074"/>
  <outline>
    <contour>
      <point x="193" y="450" type="curve" smooth="yes"/>
      <point x="193" y="389" type="line" smooth="yes"/>
      <point x="193" y="370"/>
      <point x="184.97633087914647" y="359.99737009768296"/>
      <point x="167" y="358" type="curve" smooth="yes"/>
      <point x="141.96420559244274" y="354.9957046710931"/>
      <point x="131.0" y="345.8666666666667"/>
      <point x="131" y="330" type="curve" smooth="yes"/>
      <point x="131.0" y="314.7826086956522"/>
      <point x="141" y="305"/>
      <point x="165" y="305" type="curve" smooth="yes"/>
      <point x="314.0" y="305" type="line" smooth="yes"/>
      <point x="337.0" y="305.0"/>
      <point x="347.0" y="315"/>
      <point x="347" y="330" type="curve" smooth="yes"/>
      <point x="347.0" y="346"/>
      <point x="335" y="353"/>
      <point x="316" y="357" type="curve" smooth="yes"/>
      <point x="300" y="361"/>
      <point x="293" y="369"/>
      <point x="293" y="388" type="curve" smooth="yes"/>
      <point x="293.0" y="516" type="line" smooth="yes"/>
      <point x="293.0" y="532.0"/>
      <point x="285.0" y="539.0"/>
      <point x="275" y="539" type="curve" smooth="yes"/>
      <point x="269.0" y="539.0"/>
      <point x="262" y="537"/>
      <point x="255" y="531" type="curve" smooth="yes"/>
      <point x="214" y="496.0" type="line" smooth="yes"/>
      <point x="197.0" y="481.0"/>
      <point x="193.0" y="467.0"/>
    </contour>
    <contour>
      <point x="123" y="517.0" type="curve" smooth="yes"/>
      <point x="51" y="456" type="line" smooth="yes"/>
      <point x="37.0" y="444.0"/>
      <point x="29.0" y="431.0"/>
      <point x="29" y="418" type="curve" smooth="yes"/>
      <point x="29.0" y="402.0"/>
      <point x="39" y="393"/>
      <point x="56" y="393" type="curve" smooth="yes"/>
      <point x="325" y="393" type="line" smooth="yes"/>
      <point x="347.0" y="393.0"/>
      <point x="357.0" y="401.0"/>
      <point x="357.0" y="418" type="curve" smooth="yes"/>
      <point x="357.0" y="435.0"/>
      <point x="344.0" y="441.0"/>
      <point x="325" y="441" type="curve" smooth="yes"/>
      <point x="53" y="441" type="line"/>
      <point x="71" y="414" type="line"/>
      <point x="229" y="551" type="line" smooth="yes"/>
      <point x="251.70918470357384" y="570.6908753442381"/>
      <point x="263.0" y="589.0"/>
      <point x="263" y="608" type="curve" smooth="yes"/>
      <point x="263.0" y="641.5294117647059"/>
      <point x="238.6" y="665.0"/>
      <point x="202" y="665.0" type="curve" smooth="yes"/>
      <point x="158.66666666666669" y="665.0"/>
      <point x="137.0" y="634.0"/>
      <point x="137.0" y="606" type="curve" smooth="yes"/>
      <point x="137.0" y="588.0"/>
      <point x="148.0" y="577.0"/>
      <point x="148" y="562" type="curve" smooth="yes"/>
      <point x="148.0" y="546.0"/>
      <point x="139.28196500982017" y="530.7944425777644"/>
    </contour>
  </outline>
</glyph>
<glyph name="Euro" format="2">
  <advance width="713"/>
  <unicode hex="20AC"/>
  <outline>
    <contour>
      <point x="666" y="168" type="curve" smooth="yes"/>
      <point x="666" y="183"/>
      <point x="655" y="194"/>
      <point x="639" y="194" type="curve" smooth="yes"/>
      <point x="628" y="194.0"/>
      <point x="617" y="187"/>
      <point x="603" y="170" type="curve" smooth="yes"/>
      <point x="569.0" y="128.0"/>
      <point x="518.0" y="98.0"/>
      <point x="457" y="98" type="curve" smooth="yes"/>
      <point x="336.0" y="98.0"/>
      <point x="251.0" y="202"/>
      <point x="251" y="350" type="curve" smooth="yes"/>
      <point x="251.0" y="499"/>
      <point x="327.0" y="589.0"/>
      <point x="432" y="589" type="curve" smooth="yes"/>
      <point x="507.0" y="589.0"/>
      <point x="544.0" y="565.0"/>
      <point x="553" y="517" type="curve" smooth="yes"/>
      <point x="557" y="496" type="line" smooth="yes"/>
      <point x="563" y="464"/>
      <point x="576" y="451.0"/>
      <point x="595" y="451" type="curve" smooth="yes"/>
      <point x="619" y="451.0"/>
      <point x="633" y="465"/>
      <point x="640" y="499" type="curve" smooth="yes"/>
      <point x="659" y="601" type="line" smooth="yes"/>
      <point x="660" y="606"/>
      <point x="663" y="618"/>
      <point x="663" y="629" type="curve" smooth="yes"/>
      <point x="663" y="643.0"/>
      <point x="651" y="657"/>
      <point x="635" y="657" type="curve" smooth="yes"/>
      <point x="622" y="657"/>
      <point x="613" y="653"/>
      <point x="603" y="642" type="curve" smooth="yes"/>
      <point x="596" y="635"/>
      <point x="588" y="630"/>
      <point x="577" y="630" type="curve" smooth="yes"/>
      <point x="567" y="630"/>
      <point x="556" y="629"/>
      <point x="535" y="639" type="curve" smooth="yes"/>
      <point x="504.0" y="652.0"/>
      <point x="470.0" y="659.0"/>
      <point x="421" y="659" type="curve" smooth="yes"/>
      <point x="248.0" y="659.0"/>
      <point x="120.0" y="514"/>
      <point x="120" y="309" type="curve" smooth="yes"/>
      <point x="120.0" y="119"/>
      <point x="243.0" y="-16.0"/>
      <point x="413" y="-16" type="curve" smooth="yes"/>
      <point x="545.0" y="-16.0"/>
      <point x="666.0" y="74.0"/>
    </contour>
    <contour>
      <point x="519.0" y="245.0" type="curve" smooth="yes"/>
      <point x="544.0" y="245.0"/>
      <point x="555.0" y="258.0"/>
      <point x="555.0" y="272.0" type="curve" smooth="yes"/>
      <point x="555.0" y="291.0"/>
      <point x="543.0" y="304.0"/>
      <point x="519.0" y="305.0" type="curve" smooth="yes"/>
      <point x="496" y="306"/>
      <point x="469" y="290.0"/>
      <point x="328.0" y="290.0" type="curve" smooth="yes"/>
      <point x="141" y="290.0"/>
      <point x="107" y="302.0"/>
      <point x="75.0" y="302.0" type="curve" smooth="yes"/>
      <point x="51.0" y="302.0"/>
      <point x="39.0" y="285.0"/>
      <point x="39.0" y="268.0" type="curve" smooth="yes"/>
      <point x="39.0" y="254.0"/>
      <point x="50.0" y="241.0"/>
      <point x="73.0" y="241.0" type="curve" smooth="yes"/>
      <point x="101" y="241.0"/>
      <point x="138" y="253.0"/>
      <point x="328.0" y="253.0" type="curve" smooth="yes"/>
      <point x="468" y="253.0"/>
      <point x="496" y="245.0"/>
    </contour>
    <contour>
      <point x="559.0" y="346.0" type="curve" smooth="yes"/>
      <point x="584.0" y="346.0"/>
      <point x="595.0" y="359.0"/>
      <point x="595.0" y="373.0" type="curve" smooth="yes"/>
      <point x="595.0" y="392.0"/>
      <point x="583.0" y="405.0"/>
      <point x="559.0" y="406.0" type="curve" smooth="yes"/>
      <point x="531" y="407"/>
      <point x="498" y="391.0"/>
      <point x="328.0" y="391.0" type="curve" smooth="yes"/>
      <point x="141" y="391.0"/>
      <point x="107" y="403.0"/>
      <point x="75.0" y="403.0" type="curve" smooth="yes"/>
      <point x="51.0" y="403.0"/>
      <point x="39.0" y="386.0"/>
      <point x="39.0" y="369.0" type="curve" smooth="yes"/>
      <point x="39.0" y="355.0"/>
      <point x="50.0" y="342.0"/>
      <point x="73.0" y="342.0" type="curve" smooth="yes"/>
      <point x="101" y="342.0"/>
      <point x="138" y="354.0"/>
      <point x="328.0" y="354.0" type="curve" smooth="yes"/>
      <point x="497" y="354.0"/>
      <point x="531" y="346.0"/>
    </contour>
  </outline>
</glyph>
<glyph name="manat" format="2">
  <advance width="771"/>
  <unicode hex="20BC"/>
  <outline>
    <contour>
      <point x="101" y="337" type="curve" smooth="yes"/>
      <point x="101" y="103" type="line" smooth="yes"/>
      <point x="101.0" y="79.0"/>
      <point x="88" y="71"/>
      <point x="68" y="63" type="curve" smooth="yes"/>
      <point x="55" y="58" type="line" smooth="yes"/>
      <point x="33" y="50"/>
      <point x="20.0" y="46.0"/>
      <point x="20" y="27" type="curve" smooth="yes"/>
      <point x="20.0" y="8.0"/>
      <point x="31" y="0"/>
      <point x="58" y="0" type="curve" smooth="yes"/>
      <point x="278" y="0" type="line" smooth="yes"/>
      <point x="304.0" y="0.0"/>
      <point x="316.0" y="8.0"/>
      <point x="316" y="27" type="curve" smooth="yes"/>
      <point x="316.0" y="46.0"/>
      <point x="302" y="49"/>
      <point x="280" y="58" type="curve" smooth="yes"/>
      <point x="268" y="63" type="line" smooth="yes"/>
      <point x="246" y="72"/>
      <point x="235.0" y="79.0"/>
      <point x="235" y="103" type="curve" smooth="yes"/>
      <point x="235" y="357" type="line" smooth="yes"/>
      <point x="235.0" y="487.0"/>
      <point x="296.0" y="565.0"/>
      <point x="387" y="565" type="curve" smooth="yes"/>
      <point x="490.0" y="565.0"/>
      <point x="536.0" y="478.0"/>
      <point x="536" y="337" type="curve" smooth="yes"/>
      <point x="536" y="103" type="line" smooth="yes"/>
      <point x="536" y="79"/>
      <point x="523" y="71"/>
      <point x="503" y="63" type="curve" smooth="yes"/>
      <point x="490" y="58" type="line" smooth="yes"/>
      <point x="468" y="50"/>
      <point x="455.0" y="46.0"/>
      <point x="455" y="27" type="curve" smooth="yes"/>
      <point x="455.0" y="8.0"/>
      <point x="466" y="0"/>
      <point x="493" y="0" type="curve" smooth="yes"/>
      <point x="713" y="0" type="line" smooth="yes"/>
      <point x="739.0" y="0.0"/>
      <point x="751.0" y="8.0"/>
      <point x="751" y="27" type="curve" smooth="yes"/>
      <point x="751.0" y="46.0"/>
      <point x="736" y="50"/>
      <point x="716" y="58" type="curve" smooth="yes"/>
      <point x="703" y="63" type="line" smooth="yes"/>
      <point x="681.0" y="71.0"/>
      <point x="670.0" y="79.0"/>
      <point x="670" y="103" type="curve" smooth="yes"/>
      <point x="670" y="357" type="line" smooth="yes"/>
      <point x="670.0" y="491.0"/>
      <point x="581.4380165289256" y="633.0"/>
      <point x="388" y="633" type="curve" smooth="yes"/>
      <point x="196.27935222672065" y="633.0"/>
      <point x="101" y="499.0"/>
    </contour>
    <contour>
      <point x="347" y="153" type="curve" smooth="yes"/>
      <point x="347.0" y="121"/>
      <point x="366.0" y="107.0"/>
      <point x="386" y="107" type="curve" smooth="yes"/>
      <point x="410.0" y="107.0"/>
      <point x="425" y="122"/>
      <point x="427" y="150" type="curve" smooth="yes"/>
      <point x="428.08154546622256" y="182.446363986677"/>
      <point x="405.0" y="220.42792792792793"/>
      <point x="405" y="415" type="curve" smooth="yes"/>
      <point x="405.0" y="589.9477611940299"/>
      <point x="417.0" y="623.6940298507462"/>
      <point x="417" y="653" type="curve" smooth="yes"/>
      <point x="417" y="677"/>
      <point x="402" y="689"/>
      <point x="387" y="689" type="curve" smooth="yes"/>
      <point x="371" y="689"/>
      <point x="356" y="678"/>
      <point x="356" y="655" type="curve" smooth="yes"/>
      <point x="356.0" y="628.3333333333334"/>
      <point x="368.0" y="593.6666666666667"/>
      <point x="368" y="415" type="curve" smooth="yes"/>
      <point x="368.0" y="223.8108108108108"/>
      <point x="347.0" y="185.4793388429752"/>
    </contour>
  </outline>
</glyph>
<glyph name="numero" format="2">
  <advance width="1129"/>
  <unicode hex="2116"/>
  <outline>
    <contour>
      <point x="692" y="71" type="curve" smooth="yes"/>
      <point x="692.0" y="46"/>
      <point x="709" y="30"/>
      <point x="737" y="30" type="curve" smooth="yes"/>
      <point x="1025" y="30" type="line" smooth="yes"/>
      <point x="1054" y="30"/>
      <point x="1072.0" y="46"/>
      <point x="1072" y="71" type="curve" smooth="yes"/>
      <point x="1072.0" y="97"/>
      <point x="1053" y="114"/>
      <point x="1025" y="114" type="curve" smooth="yes"/>
      <point x="738" y="114" type="line" smooth="yes"/>
      <point x="711" y="114"/>
      <point x="692.0" y="97"/>
    </contour>
    <contour>
      <point x="884" y="602" type="curve" smooth="yes"/>
      <point x="755.8075117370893" y="602.0"/>
      <point x="669.0" y="511.0"/>
      <point x="669" y="400" type="curve" smooth="yes"/>
      <point x="669.0" y="277.0"/>
      <point x="759.8450704225352" y="188.0"/>
      <point x="884" y="188" type="curve" smooth="yes"/>
      <point x="1006.1203703703704" y="188.0"/>
      <point x="1102.0" y="274.0"/>
      <point x="1102" y="400" type="curve" smooth="yes"/>
      <point x="1102.0" y="517.0"/>
      <point x="1010.1574074074074" y="602.0"/>
    </contour>
    <contour>
      <point x="965" y="363" type="curve" smooth="yes"/>
      <point x="965.0" y="296.359649122807"/>
      <point x="942.0" y="256.0"/>
      <point x="905" y="256" type="curve" smooth="yes"/>
      <point x="848.0" y="256.0"/>
      <point x="804.0" y="331.8757062146893"/>
      <point x="804" y="426" type="curve" smooth="yes"/>
      <point x="804.0" y="492.7521367521367"/>
      <point x="829.0" y="536.0"/>
      <point x="867" y="536" type="curve" smooth="yes"/>
      <point x="924.0" y="536.0"/>
      <point x="965.0" y="458.15"/>
    </contour>
    <contour>
      <point x="293" y="36" type="curve" smooth="yes"/>
      <point x="293" y="58"/>
      <point x="286" y="67"/>
      <point x="267" y="78" type="curve" smooth="yes"/>
      <point x="240" y="93" type="line" smooth="yes"/>
      <point x="211" y="109"/>
      <point x="191" y="117"/>
      <point x="191" y="139" type="curve" smooth="yes"/>
      <point x="191" y="489" type="line"/>
      <point x="151" y="482" type="line"/>
      <point x="424" y="82" type="line" smooth="yes"/>
      <point x="443" y="54"/>
      <point x="442" y="42"/>
      <point x="442" y="29" type="curve" smooth="yes"/>
      <point x="442" y="10"/>
      <point x="452.0" y="0"/>
      <point x="469" y="0.0" type="curve" smooth="yes"/>
      <point x="593" y="0.0" type="line" smooth="yes"/>
      <point x="607" y="0"/>
      <point x="618.0" y="8.0"/>
      <point x="618" y="20" type="curve" smooth="yes"/>
      <point x="618.0" y="53"/>
      <point x="580" y="79"/>
      <point x="580" y="118" type="curve" smooth="yes"/>
      <point x="580" y="511" type="line" smooth="yes"/>
      <point x="580.0" y="530.0"/>
      <point x="599" y="549"/>
      <point x="620" y="559" type="curve" smooth="yes"/>
      <point x="654" y="575" type="line" smooth="yes"/>
      <point x="674" y="585"/>
      <point x="677" y="599"/>
      <point x="677" y="615" type="curve" smooth="yes"/>
      <point x="677" y="634"/>
      <point x="662" y="649"/>
      <point x="645" y="649" type="curve" smooth="yes"/>
      <point x="422" y="649" type="line" smooth="yes"/>
      <point x="403" y="649"/>
      <point x="392" y="641"/>
      <point x="392" y="619" type="curve" smooth="yes"/>
      <point x="392" y="601"/>
      <point x="400" y="584"/>
      <point x="424" y="574" type="curve" smooth="yes"/>
      <point x="459.0" y="559" type="line" smooth="yes"/>
      <point x="490" y="546"/>
      <point x="499.0" y="533.0"/>
      <point x="499" y="511" type="curve" smooth="yes"/>
      <point x="499" y="144" type="line"/>
      <point x="550" y="151" type="line"/>
      <point x="237" y="608" type="line" smooth="yes"/>
      <point x="212" y="645"/>
      <point x="197" y="649"/>
      <point x="176" y="649" type="curve" smooth="yes"/>
      <point x="50" y="649" type="line" smooth="yes"/>
      <point x="30.0" y="649.0"/>
      <point x="18.0" y="639.9090909090909"/>
      <point x="18" y="619" type="curve" smooth="yes"/>
      <point x="18.0" y="604.0454545454545"/>
      <point x="28.559505086813452" y="588.7640862847151"/>
      <point x="47" y="572" type="curve" smooth="yes"/>
      <point x="69" y="552" type="line" smooth="yes"/>
      <point x="100.0" y="524.0"/>
      <point x="109.0" y="499.0"/>
      <point x="109.0" y="458.0" type="curve" smooth="yes"/>
      <point x="109.0" y="139" type="line" smooth="yes"/>
      <point x="109" y="118"/>
      <point x="92" y="102"/>
      <point x="69" y="93" type="curve" smooth="yes"/>
      <point x="40" y="81" type="line" smooth="yes"/>
      <point x="16" y="70"/>
      <point x="6.0" y="55"/>
      <point x="6.0" y="33" type="curve" smooth="yes"/>
      <point x="6.0" y="8"/>
      <point x="19" y="0.0"/>
      <point x="38" y="0.0" type="curve" smooth="yes"/>
      <point x="255" y="0.0" type="line" smooth="yes"/>
      <point x="276" y="0.0"/>
      <point x="293" y="13"/>
    </contour>
  </outline>
</glyph>
<glyph name="breve.case" format="2">
  <outline>
    <contour>
      <point x="231" y="715.0" type="curve" smooth="yes"/>
      <point x="344.0" y="715.0"/>
      <point x="416.0" y="792.1549295774648"/>
      <point x="416" y="847" type="curve" smooth="yes"/>
      <point x="416" y="859"/>
      <point x="407.0" y="869.0"/>
      <point x="395" y="869" type="curve" smooth="yes"/>
      <point x="383.5714285714286" y="869.0"/>
      <point x="377" y="863"/>
      <point x="363" y="849" type="curve" smooth="yes"/>
      <point x="341" y="827"/>
      <point x="300.88235294117646" y="812.0"/>
      <point x="231" y="812" type="curve" smooth="yes"/>
      <point x="162.90298507462688" y="812.0"/>
      <point x="125" y="826"/>
      <point x="106" y="845" type="curve" smooth="yes"/>
      <point x="86" y="865"/>
      <point x="76.3225806451613" y="869.0"/>
      <point x="66.0" y="869" type="curve" smooth="yes"/>
      <point x="51.0" y="869.0"/>
      <point x="44" y="860"/>
      <point x="44.0" y="849" type="curve" smooth="yes"/>
      <point x="44.0" y="796.8888888888889"/>
      <point x="112.0" y="715.0"/>
    </contour>
  </outline>
</glyph>
<glyph name="dotaccent.case" format="2">
  <outline>
    <contour>
      <point x="110.0" y="666.4000000000001" type="curve" smooth="yes"/>
      <point x="155.9" y="666.4000000000001"/>
      <point x="192.8" y="704.2"/>
      <point x="192.8" y="750.1" type="curve" smooth="yes"/>
      <point x="192.8" y="796.0"/>
      <point x="155.9" y="832.0"/>
      <point x="110.0" y="832.0" type="curve" smooth="yes"/>
      <point x="65.0" y="832.0"/>
      <point x="28.1" y="796.0"/>
      <point x="28.1" y="750.1" type="curve" smooth="yes"/>
      <point x="28.1" y="704.2"/>
      <point x="65.0" y="666.4000000000001"/>
    </contour>
  </outline>
</glyph>
<glyph name="exclamdown.case" format="2">
  <advance width="263"/>
  <outline>
    <contour>
      <point x="132" y="-34" type="curve" smooth="yes"/>
      <point x="69.0" y="-34.0"/>
      <point x="38.0" y="-2.051948051948102"/>
      <point x="38" y="48" type="curve" smooth="yes"/>
      <point x="38.0" y="64.67647058823525"/>
      <point x="40.148205199301486" y="90.97675990998914"/>
      <point x="43" y="111" type="curve" smooth="yes"/>
      <point x="90" y="441" type="line" smooth="yes"/>
      <point x="94" y="469"/>
      <point x="105.0" y="484.0"/>
      <point x="129" y="484" type="curve" smooth="yes"/>
      <point x="153.0" y="484.0"/>
      <point x="163" y="470"/>
      <point x="168" y="439" type="curve" smooth="yes"/>
      <point x="219" y="110" type="line" smooth="yes"/>
      <point x="223" y="84"/>
      <point x="224.0" y="65.63380281690138"/>
      <point x="224" y="47" type="curve" smooth="yes"/>
      <point x="224.0" y="-4.041095890410929"/>
      <point x="182.0" y="-34.0"/>
    </contour>
    <contour>
      <point x="134.0" y="719.0" type="curve" smooth="yes"/>
      <point x="80.0" y="719.0"/>
      <point x="38.0" y="675.0"/>
      <point x="38.0" y="622.0" type="curve" smooth="yes"/>
      <point x="38.0" y="569.0"/>
      <point x="80.0" y="526.0"/>
      <point x="134.0" y="526.0" type="curve" smooth="yes"/>
      <point x="187.0" y="526.0"/>
      <point x="229.0" y="569.0"/>
      <point x="229.0" y="622.0" type="curve" smooth="yes"/>
      <point x="229.0" y="675.0"/>
      <point x="187.0" y="719.0"/>
    </contour>
  </outline>
</glyph>
<glyph name="five.case" format="2">
  <advance width="571"/>
  <outline>
    <contour>
      <point x="37.400000000000006" y="146.10000000000002" type="curve" smooth="yes"/>
      <point x="37.400000000000006" y="55.900000000000006"/>
      <point x="128.70000000000002" y="-14.5"/>
      <point x="258.5" y="-14.5" type="curve" smooth="yes"/>
      <point x="427.90000000000003" y="-14.5"/>
      <point x="557.7" y="83.19162995594714"/>
      <point x="557.7" y="231.9" type="curve" smooth="yes"/>
      <point x="557.7" y="360.4079365079366"/>
      <point x="456.4901785714286" y="443.1"/>
      <point x="305.8" y="443.1" type="curve" smooth="yes"/>
      <point x="226.66111111111113" y="443.1"/>
      <point x="156.57626434916872" y="416.71439652375307"/>
      <point x="113.30000000000001" y="351.8" type="curve"/>
      <point x="168.3" y="362.8" type="line"/>
      <point x="168.3" y="647.7" type="line"/>
      <point x="113.30000000000001" y="603.7" type="line"/>
      <point x="152.84322286199497" y="553.035245708069"/>
      <point x="233.20000000000002" y="501.40000000000003"/>
      <point x="341.0" y="501.40000000000003" type="curve" smooth="yes"/>
      <point x="495.00000000000006" y="501.40000000000003"/>
      <point x="563.2" y="583.2125000000001"/>
      <point x="563.2" y="693.9000000000001" type="curve" smooth="yes"/>
      <point x="563.2" y="719.2"/>
      <point x="545.6" y="732.4000000000001"/>
      <point x="525.8000000000001" y="732.4000000000001" type="curve" smooth="yes"/>
      <point x="506.3581395348837" y="732.4000000000001"/>
      <point x="489.50000000000006" y="718.1"/>
      <point x="481.8" y="696.1" type="curve" smooth="yes"/>
      <point x="472.0506535784119" y="666.8519607352357"/>
      <point x="446.87848101265826" y="647.7"/>
      <point x="409.20000000000005" y="647.7" type="curve" smooth="yes"/>
      <point x="338.02383177570096" y="647.7"/>
      <point x="245.84485981308413" y="731.3000000000001"/>
      <point x="159.5" y="731.3000000000001" type="curve" smooth="yes"/>
      <point x="104.50000000000001" y="731.3000000000001"/>
      <point x="80.30000000000001" y="700.5"/>
      <point x="80.30000000000001" y="651.0" type="curve" smooth="yes"/>
      <point x="80.30000000000001" y="339.70000000000005" type="line" smooth="yes"/>
      <point x="80.30000000000001" y="314.40000000000003"/>
      <point x="102.30000000000001" y="292.40000000000003"/>
      <point x="126.50000000000001" y="292.40000000000003" type="curve" smooth="yes"/>
      <point x="147.4" y="292.40000000000003"/>
      <point x="162.8" y="303.40000000000003"/>
      <point x="183.70000000000002" y="327.6" type="curve" smooth="yes"/>
      <point x="204.2669704267957" y="351.79643579623024"/>
      <point x="228.69154929577468" y="358.40000000000003"/>
      <point x="256.3" y="358.40000000000003" type="curve" smooth="yes"/>
      <point x="331.2708737864078" y="358.40000000000003"/>
      <point x="375.1" y="303.3612676056338"/>
      <point x="375.1" y="198.9" type="curve" smooth="yes"/>
      <point x="375.1" y="114.08560000000001"/>
      <point x="333.3" y="64.7"/>
      <point x="273.90000000000003" y="64.7" type="curve" smooth="yes"/>
      <point x="243.10000000000002" y="64.7"/>
      <point x="225.50000000000003" y="91.10000000000001"/>
      <point x="225.50000000000003" y="118.60000000000001" type="curve" smooth="yes"/>
      <point x="225.50000000000003" y="147.20000000000002" type="line" smooth="yes"/>
      <point x="225.50000000000003" y="207.70000000000002"/>
      <point x="187.00000000000003" y="248.40000000000003"/>
      <point x="140.8" y="248.40000000000003" type="curve" smooth="yes"/>
      <point x="82.5" y="248.40000000000003"/>
      <point x="37.400000000000006" y="205.50000000000003"/>
    </contour>
  </outline>
</glyph>
<glyph name="four.case" format="2">
  <advance width="566"/>
  <outline>
    <contour>
      <point x="325.6" y="355.3" type="curve" smooth="yes"/>
      <point x="326.70000000000005" y="144.10000000000002" type="line" smooth="yes"/>
      <point x="326.70000000000005" y="112.2"/>
      <point x="312.40000000000003" y="99.00000000000001"/>
      <point x="283.8" y="90.2" type="curve" smooth="yes"/>
      <point x="254.10000000000002" y="81.4" type="line" smooth="yes"/>
      <point x="220.00000000000003" y="71.5"/>
      <point x="199.10000000000002" y="66.0"/>
      <point x="199.10000000000002" y="38.5" type="curve" smooth="yes"/>
      <point x="199.10000000000002" y="11.0"/>
      <point x="213.4" y="0.0"/>
      <point x="246.40000000000003" y="0.0" type="curve" smooth="yes"/>
      <point x="543.4000000000001" y="0.0" type="line" smooth="yes"/>
      <point x="575.3000000000001" y="0.0"/>
      <point x="590.7" y="11.0"/>
      <point x="590.7" y="38.5" type="curve" smooth="yes"/>
      <point x="590.7" y="66.0"/>
      <point x="573.1" y="80.30000000000001"/>
      <point x="545.6" y="84.7" type="curve" smooth="yes"/>
      <point x="523.6" y="88.0" type="line" smooth="yes"/>
      <point x="495.00000000000006" y="92.4"/>
      <point x="480.70000000000005" y="108.9"/>
      <point x="480.70000000000005" y="140.8" type="curve" smooth="yes"/>
      <point x="479.6" y="457.6" type="line" smooth="yes"/>
      <point x="479.6" y="486.20000000000005"/>
      <point x="466.40000000000003" y="498.30000000000007"/>
      <point x="447.70000000000005" y="498.30000000000007" type="curve" smooth="yes"/>
      <point x="432.3" y="498.30000000000007"/>
      <point x="416.90000000000003" y="495.00000000000006"/>
      <point x="397.1" y="471.90000000000003" type="curve" smooth="yes"/>
      <point x="352.0" y="419.1" type="line" smooth="yes"/>
      <point x="335.5" y="400.40000000000003"/>
      <point x="325.6" y="382.8"/>
    </contour>
    <contour>
      <point x="178.20000000000002" y="433.40000000000003" type="curve" smooth="yes"/>
      <point x="58.300000000000004" y="304.70000000000005" type="line" smooth="yes"/>
      <point x="30.800000000000004" y="275.0"/>
      <point x="13.200000000000001" y="247.50000000000003"/>
      <point x="13.200000000000001" y="225.50000000000003" type="curve" smooth="yes"/>
      <point x="13.200000000000001" y="191.4"/>
      <point x="34.1" y="171.60000000000002"/>
      <point x="71.5" y="171.60000000000002" type="curve" smooth="yes"/>
      <point x="539.0" y="171.60000000000002" type="line" smooth="yes"/>
      <point x="576.4000000000001" y="171.60000000000002"/>
      <point x="592.9000000000001" y="185.9"/>
      <point x="592.9000000000001" y="220.00000000000003" type="curve" smooth="yes"/>
      <point x="592.9000000000001" y="245.3"/>
      <point x="568.7" y="257.40000000000003"/>
      <point x="539.0" y="257.40000000000003" type="curve" smooth="yes"/>
      <point x="93.50000000000001" y="257.40000000000003" type="line"/>
      <point x="95.7" y="227.70000000000002" type="line"/>
      <point x="313.5" y="464.20000000000005" type="line" smooth="yes"/>
      <point x="387.20000000000005" y="544.5"/>
      <point x="416.90000000000003" y="587.4000000000001"/>
      <point x="416.90000000000003" y="630.3000000000001" type="curve" smooth="yes"/>
      <point x="416.90000000000003" y="689.4280898876406"/>
      <point x="372.90000000000003" y="731.5000000000001"/>
      <point x="314.6" y="731.5000000000001" type="curve" smooth="yes"/>
      <point x="243.10000000000002" y="731.5000000000001"/>
      <point x="200.20000000000002" y="680.3858695652174"/>
      <point x="200.20000000000002" y="627.0" type="curve" smooth="yes"/>
      <point x="200.20000000000002" y="585.2"/>
      <point x="232.10000000000002" y="572.0"/>
      <point x="232.10000000000002" y="533.5" type="curve" smooth="yes"/>
      <point x="232.10000000000002" y="504.90000000000003"/>
      <point x="213.4" y="470.8"/>
    </contour>
  </outline>
</glyph>
<glyph name="hookabove.case" format="2">
  <anchor x="159" y="465" name="center"/>
  <outline>
    <contour>
      <point x="131.5" y="798" type="curve" smooth="yes"/>
      <point x="131.5" y="811"/>
      <point x="141.4" y="824"/>
      <point x="164.5" y="829" type="curve" smooth="yes"/>
      <point x="189.8" y="836.0"/>
      <point x="199.70000000000002" y="849.0"/>
      <point x="199.70000000000002" y="873.0" type="curve" smooth="yes"/>
      <point x="199.70000000000002" y="905.0"/>
      <point x="179.9" y="924.0"/>
      <point x="153.5" y="924" type="curve" smooth="yes"/>
      <point x="129.3" y="924"/>
      <point x="115.00000000000001" y="911"/>
      <point x="115.00000000000001" y="893" type="curve" smooth="yes"/>
      <point x="115.00000000000001" y="866" type="line" smooth="yes"/>
      <point x="115.00000000000001" y="840"/>
      <point x="95.2" y="822.0"/>
      <point x="67.7" y="822" type="curve" smooth="yes"/>
      <point x="41.300000000000004" y="822.0"/>
      <point x="17.1" y="847.0"/>
      <point x="17.1" y="875" type="curve" smooth="yes"/>
      <point x="17.1" y="924.0"/>
      <point x="78.7" y="969.0"/>
      <point x="170.0" y="969" type="curve" smooth="yes"/>
      <point x="255.8" y="969.0"/>
      <point x="306.40000000000003" y="935.0"/>
      <point x="306.40000000000003" y="870.0" type="curve" smooth="yes"/>
      <point x="306.40000000000003" y="809.0"/>
      <point x="247.00000000000003" y="771.0"/>
      <point x="177.70000000000002" y="771.0" type="curve" smooth="yes"/>
      <point x="142.5" y="771.0"/>
      <point x="131.5" y="783.0"/>
    </contour>
  </outline>
</glyph>
<glyph name="nine.case" format="2">
  <advance width="605"/>
  <outline>
    <contour>
      <point x="257.4" y="-13.299999999999955" type="curve" smooth="yes"/>
      <point x="455.98169491525425" y="-13.299999999999955"/>
      <point x="606.1" y="107.9272727272729"/>
      <point x="606.1" y="405.80000000000007" type="curve" smooth="yes"/>
      <point x="606.1" y="630.8600000000001"/>
      <point x="489.65714285714284" y="732.5000000000001"/>
      <point x="334.4" y="732.5000000000001" type="curve" smooth="yes"/>
      <point x="156.52147887323946" y="732.5000000000001"/>
      <point x="31.899999999999977" y="623.4956896551726"/>
      <point x="31.899999999999977" y="466.30000000000007" type="curve" smooth="yes"/>
      <point x="31.899999999999977" y="334.77142857142866"/>
      <point x="115.96009615384617" y="261.7000000000001"/>
      <point x="237.59999999999997" y="261.7000000000001" type="curve" smooth="yes"/>
      <point x="372.45671641791046" y="261.7000000000001"/>
      <point x="481.8" y="354.1000000000001"/>
      <point x="481.8" y="466.30000000000007" type="curve"/>
      <point x="425.70000000000005" y="482.80000000000007" type="line"/>
      <point x="425.70000000000005" y="409.1000000000001"/>
      <point x="372.3176470588235" y="356.30000000000007"/>
      <point x="304.7" y="356.30000000000007" type="curve" smooth="yes"/>
      <point x="245.0191489361702" y="356.30000000000007"/>
      <point x="194.7" y="406.45694444444456"/>
      <point x="194.7" y="503.7000000000001" type="curve" smooth="yes"/>
      <point x="194.7" y="594.4452991452993"/>
      <point x="237.59999999999997" y="643.4000000000001"/>
      <point x="306.9" y="643.4000000000001" type="curve" smooth="yes"/>
      <point x="371.8" y="643.4000000000001"/>
      <point x="426.8" y="584.1391304347827"/>
      <point x="426.8" y="384.9000000000001" type="curve" smooth="yes"/>
      <point x="426.8" y="142.24160583941602"/>
      <point x="365.2" y="63.700000000000045"/>
      <point x="300.3" y="63.700000000000045" type="curve" smooth="yes"/>
      <point x="255.75" y="63.700000000000045"/>
      <point x="231.0" y="93.40000000000009"/>
      <point x="231.0" y="123.10000000000002" type="curve" smooth="yes"/>
      <point x="231.0" y="142.9000000000001" type="line" smooth="yes"/>
      <point x="231.0" y="204.7750000000001"/>
      <point x="186.2571428571428" y="241.9000000000001"/>
      <point x="135.29999999999995" y="241.9000000000001" type="curve" smooth="yes"/>
      <point x="77.09072164948452" y="241.9000000000001"/>
      <point x="39.60000000000002" y="206.53260869565224"/>
      <point x="39.60000000000002" y="146.20000000000005" type="curve" smooth="yes"/>
      <point x="39.60000000000002" y="62.60000000000002"/>
      <point x="116.81999999999994" y="-13.299999999999955"/>
    </contour>
  </outline>
</glyph>
<glyph name="questiondown.case" format="2">
  <advance width="458"/>
  <outline>
    <contour>
      <point x="326" y="407" type="line" smooth="yes"/>
      <point x="327" y="400"/>
      <point x="327" y="398"/>
      <point x="327" y="394" type="curve" smooth="yes"/>
      <point x="327" y="374"/>
      <point x="317" y="354"/>
      <point x="289" y="341" type="curve" smooth="yes"/>
      <point x="244" y="321" type="line" smooth="yes"/>
      <point x="197" y="300"/>
      <point x="172.0" y="246.36912751677852"/>
      <point x="172" y="182" type="curve" smooth="yes"/>
      <point x="172.0" y="95.0"/>
      <point x="206.0" y="53.0"/>
      <point x="259" y="53" type="curve" smooth="yes"/>
      <point x="296.0" y="53.0"/>
      <point x="317.0" y="73.0"/>
      <point x="317" y="109" type="curve" smooth="yes"/>
      <point x="317" y="151" type="line" smooth="yes"/>
      <point x="317.0" y="193.0"/>
      <point x="352.0" y="224.0"/>
      <point x="395" y="224" type="curve" smooth="yes"/>
      <point x="438.0" y="224.0"/>
      <point x="466.0" y="194.0"/>
      <point x="466" y="142" type="curve" smooth="yes"/>
      <point x="466.0" y="65.5496688741722"/>
      <point x="369.68663594470047" y="-14.0"/>
      <point x="246" y="-14" type="curve" smooth="yes"/>
      <point x="99.90557939914163" y="-14.0"/>
      <point x="16.0" y="52.5393258426966"/>
      <point x="16.0" y="174.0" type="curve" smooth="yes"/>
      <point x="16.0" y="274.16129032258067"/>
      <point x="80.32859473957149" y="338.7314378958286"/>
      <point x="186" y="381" type="curve" smooth="yes"/>
      <point x="201" y="387" type="line" smooth="yes"/>
      <point x="224" y="396"/>
      <point x="236" y="413"/>
      <point x="243" y="444" type="curve" smooth="yes"/>
      <point x="245" y="453" type="line" smooth="yes"/>
      <point x="250" y="479"/>
      <point x="262" y="492"/>
      <point x="284" y="492" type="curve" smooth="yes"/>
      <point x="304.0" y="492.0"/>
      <point x="317.1479660120773" y="474.2754583082125"/>
      <point x="321" y="445" type="curve" smooth="yes"/>
    </contour>
    <contour>
      <point x="283.0" y="716.0" type="curve" smooth="yes"/>
      <point x="229.0" y="716.0"/>
      <point x="187.0" y="672.0"/>
      <point x="187.0" y="619.0" type="curve" smooth="yes"/>
      <point x="187.0" y="566.0"/>
      <point x="229.0" y="523.0"/>
      <point x="283.0" y="523.0" type="curve" smooth="yes"/>
      <point x="336.0" y="523.0"/>
      <point x="378.0" y="566.0"/>
      <point x="378.0" y="619.0" type="curve" smooth="yes"/>
      <point x="378.0" y="672.0"/>
      <point x="336.0" y="716.0"/>
    </contour>
  </outline>
</glyph>
<glyph name="three.case" format="2">
  <advance width="566"/>
  <outline>
    <contour>
      <point x="297.0" y="376.00000000000006" type="line"/>
      <point x="520.3000000000001" y="609.2" type="line" smooth="yes"/>
      <point x="541.2" y="630.1"/>
      <point x="547.8000000000001" y="652.1"/>
      <point x="547.8000000000001" y="667.5" type="curve" smooth="yes"/>
      <point x="547.8000000000001" y="696.1"/>
      <point x="525.8000000000001" y="715.9000000000001"/>
      <point x="490.6" y="715.9000000000001" type="curve" smooth="yes"/>
      <point x="139.70000000000002" y="715.9000000000001" type="line" smooth="yes"/>
      <point x="94.60000000000001" y="715.9000000000001"/>
      <point x="67.10000000000001" y="690.6"/>
      <point x="63.800000000000004" y="653.2" type="curve" smooth="yes"/>
      <point x="52.800000000000004" y="516.8000000000001" type="line" smooth="yes"/>
      <point x="50.6" y="492.6"/>
      <point x="67.10000000000001" y="480.50000000000006"/>
      <point x="89.10000000000001" y="480.50000000000006" type="curve" smooth="yes"/>
      <point x="110.00000000000001" y="480.50000000000006"/>
      <point x="124.30000000000001" y="497.00000000000006"/>
      <point x="134.20000000000002" y="514.6" type="curve" smooth="yes"/>
      <point x="151.8" y="546.5" type="line" smooth="yes"/>
      <point x="167.20000000000002" y="575.1"/>
      <point x="191.4" y="585.0"/>
      <point x="228.8" y="585.0" type="curve" smooth="yes"/>
      <point x="454.3" y="585.0" type="line"/>
      <point x="436.70000000000005" y="645.5" type="line"/>
      <point x="209.00000000000003" y="407.90000000000003" type="line" smooth="yes"/>
      <point x="194.70000000000002" y="393.6"/>
      <point x="183.70000000000002" y="377.1"/>
      <point x="183.70000000000002" y="358.40000000000003" type="curve" smooth="yes"/>
      <point x="183.70000000000002" y="337.5"/>
      <point x="202.4" y="323.20000000000005"/>
      <point x="226.60000000000002" y="323.20000000000005" type="curve" smooth="yes"/>
      <point x="266.20000000000005" y="323.20000000000005" type="line" smooth="yes"/>
      <point x="334.6823008849558" y="323.20000000000005"/>
      <point x="381.70000000000005" y="279.20000000000005"/>
      <point x="381.70000000000005" y="191.20000000000002" type="curve" smooth="yes"/>
      <point x="381.70000000000005" y="110.9"/>
      <point x="345.70455502533747" y="56.900087596641114"/>
      <point x="293.70000000000005" y="55.900000000000006" type="curve" smooth="yes"/>
      <point x="248.16172006676916" y="54.88803822370598"/>
      <point x="217.8" y="85.51315789473685"/>
      <point x="217.8" y="124.10000000000001" type="curve" smooth="yes"/>
      <point x="217.8" y="165.9" type="line" smooth="yes"/>
      <point x="217.8" y="220.9"/>
      <point x="178.98571428571432" y="259.40000000000003"/>
      <point x="132.0" y="259.40000000000003" type="curve" smooth="yes"/>
      <point x="78.92168674698796" y="259.40000000000003"/>
      <point x="34.1" y="217.4"/>
      <point x="34.1" y="160.4" type="curve" smooth="yes"/>
      <point x="34.1" y="63.622"/>
      <point x="124.30000000000001" y="-14.5"/>
      <point x="283.8" y="-14.5" type="curve" smooth="yes"/>
      <point x="443.3" y="-14.5"/>
      <point x="550.0" y="74.60000000000001"/>
      <point x="550.0" y="216.50000000000003" type="curve" smooth="yes"/>
      <point x="550.0" y="343.0"/>
      <point x="447.70000000000005" y="403.50000000000006"/>
      <point x="288.20000000000005" y="403.50000000000006" type="curve" smooth="yes"/>
      <point x="284.90000000000003" y="403.50000000000006"/>
      <point x="267.3" y="403.50000000000006"/>
      <point x="262.90000000000003" y="403.50000000000006" type="curve"/>
    </contour>
  </outline>
</glyph>
<glyph name="two.case" format="2">
  <advance width="583"/>
  <outline>
    <contour>
      <point x="206.8" y="299.0" type="curve" smooth="yes"/>
      <point x="75.92403915384672" y="211.74935943589782"/>
      <point x="19.8" y="130.70000000000002"/>
      <point x="19.8" y="46.0" type="curve" smooth="yes"/>
      <point x="19.8" y="7.5"/>
      <point x="40.7" y="-14.5"/>
      <point x="79.2" y="-14.5" type="curve" smooth="yes"/>
      <point x="156.71111111111114" y="-14.5"/>
      <point x="131.49680851063832" y="70.2"/>
      <point x="199.10000000000002" y="70.2" type="curve" smooth="yes"/>
      <point x="262.40147783251234" y="70.2"/>
      <point x="307.4049180327869" y="-14.5"/>
      <point x="416.90000000000003" y="-14.5" type="curve" smooth="yes"/>
      <point x="525.1666666666667" y="-14.5"/>
      <point x="576.4000000000001" y="63.30052356020943"/>
      <point x="576.4000000000001" y="173.60000000000002" type="curve" smooth="yes"/>
      <point x="576.4000000000001" y="207.4918918918919"/>
      <point x="565.4000000000001" y="236.3"/>
      <point x="539.0" y="236.3" type="curve" smooth="yes"/>
      <point x="524.48" y="236.3"/>
      <point x="510.3636790427698" y="227.38065971195778"/>
      <point x="502.70000000000005" y="202.20000000000002" type="curve" smooth="yes"/>
      <point x="489.4679107653705" y="155.8876876787966"/>
      <point x="470.9222222222222" y="141.70000000000002"/>
      <point x="431.20000000000005" y="141.70000000000002" type="curve" smooth="yes"/>
      <point x="372.90000000000003" y="141.70000000000002"/>
      <point x="312.40000000000003" y="190.10000000000002"/>
      <point x="239.8" y="190.10000000000002" type="curve" smooth="yes"/>
      <point x="153.05714285714288" y="190.10000000000002"/>
      <point x="113.30000000000001" y="138.4"/>
      <point x="113.30000000000001" y="86.7" type="curve"/>
      <point x="125.4" y="87.80000000000001" type="line"/>
      <point x="125.4" y="156.0"/>
      <point x="187.19528734384957" y="195.9319624276376"/>
      <point x="328.90000000000003" y="261.6" type="curve" smooth="yes"/>
      <point x="473.9435278530427" y="329.7265055067323"/>
      <point x="546.7" y="412.3"/>
      <point x="546.7" y="533.3000000000001" type="curve" smooth="yes"/>
      <point x="546.7" y="647.7"/>
      <point x="453.20000000000005" y="732.4000000000001"/>
      <point x="300.3" y="732.4000000000001" type="curve" smooth="yes"/>
      <point x="134.20000000000002" y="732.4000000000001"/>
      <point x="35.2" y="634.5"/>
      <point x="35.2" y="537.7" type="curve" smooth="yes"/>
      <point x="35.2" y="476.1"/>
      <point x="67.61604938271606" y="439.8"/>
      <point x="119.9" y="439.8" type="curve" smooth="yes"/>
      <point x="171.75714285714287" y="439.8"/>
      <point x="216.70000000000002" y="479.40000000000003"/>
      <point x="216.70000000000002" y="541.0" type="curve" smooth="yes"/>
      <point x="216.70000000000002" y="574.0" type="line" smooth="yes"/>
      <point x="216.70000000000002" y="624.9413793103448"/>
      <point x="236.95833333333334" y="660.9000000000001"/>
      <point x="288.20000000000005" y="660.9000000000001" type="curve" smooth="yes"/>
      <point x="329.227027027027" y="660.9000000000001"/>
      <point x="364.1" y="615.8000000000001"/>
      <point x="364.1" y="530.0" type="curve" smooth="yes"/>
      <point x="364.1" y="439.8"/>
      <point x="324.5" y="377.1"/>
    </contour>
  </outline>
</glyph>
